<?xml version="1.0" encoding="UTF-8"?>
<svg id="Layer_1" xmlns="http://www.w3.org/2000/svg" xmlns:xlink="http://www.w3.org/1999/xlink" viewBox="0 0 640 360">
  <defs>
    <style>
      .cls-1 {
        fill: #85ad3f;
      }

      .cls-2 {
        fill: #009bc1;
      }

      .cls-3 {
        fill: #ee4323;
      }

      .cls-4 {
        fill: #81c241;
      }

      .cls-5 {
        fill: #0080ae;
      }

      .cls-6 {
        fill: url(#linear-gradient);
      }

      .cls-7 {
        fill: #f28c66;
      }

      .cls-8 {
        opacity: .2;
      }

      .cls-8, .cls-9, .cls-10, .cls-11 {
        fill: #fff;
      }

      .cls-9, .cls-12 {
        opacity: .3;
      }

      .cls-10 {
        opacity: .4;
      }

      .cls-13 {
        fill: #83d4f6;
      }

      .cls-14 {
        fill: #b3d244;
      }

      .cls-15 {
        fill: #7d181a;
      }

      .cls-16 {
        fill: #65ccf0;
      }

      .cls-17 {
        fill: #e53f26;
      }

      .cls-18 {
        fill: #032e45;
      }

      .cls-19 {
        fill: #709b3a;
      }

      .cls-20 {
        fill: #ffe700;
      }

      .cls-21 {
        fill: #82ad3f;
      }

      .cls-22 {
        fill: #ffce01;
      }

      .cls-23 {
        fill: #fd0;
      }

      .cls-24 {
        fill: #006794;
      }

      .cls-25 {
        fill: #fff9c5;
      }

      .cls-26 {
        fill: #f1ea4f;
      }

      .cls-27 {
        fill: #f68f1e;
      }
    </style>
    <linearGradient id="linear-gradient" x1="358.99" y1="307.03" x2="229.56" y2="-112.59" gradientUnits="userSpaceOnUse">
      <stop offset=".14" stop-color="#fff7a2"/>
      <stop offset=".36" stop-color="#eaac76"/>
      <stop offset=".48" stop-color="#d0a388"/>
      <stop offset=".71" stop-color="#a295a7"/>
      <stop offset=".9" stop-color="#868cbb"/>
      <stop offset="1" stop-color="#7c89c3"/>
    </linearGradient>
  </defs>
  <g>
    <g>
      <g>
        <rect class="cls-6" x="-.33" y=".07" width="640" height="359"/>
        <path class="cls-8" d="M638.67,174.12S178.22,154.43-1.33,169.46c0,27.36,0,24.96,0,24.96,0,0,404.66-7.97,640,5.86v6.92s-245.64-3.81-640,21.01v-65.21c182.91-18.34,456.88-20.75,640-12.33v23.45ZM638.67,95.21C363.09,42.6,115.78,119.76-1.33,124.57v13.04c402.64-23.99,615.06-39.66,640-38.49v-3.91ZM-1.33,81.08C246.59,5.52,620.85,41.35,638.67,40.49v-7.68C507.1,10.12,310.25-4.4-1.33,18.24v62.85Z"/>
        <path class="cls-10" d="M594.82,196.55c-3.92-2.9-7.96-4.38-11.7-4.83-3.07-5.92-10.17-9.16-14.15-5.02,3.84-14.87-7.04-27.68-26.88-13.84,29.44-35.37-8.32-72.28-43.52-68.18,11.52-2.05,25.07-22.12-7.04-18.45,27.52-13.84,8.37-37.77-13.39-10.09,3.86-72.22-149.48-79.86-163.46-31.86-7.68-19.99-96.89-27.8-89.21,5.52-37.76-75.87-125.48-25.31-78.12,18.27-67.21-4.61-89.15,61.22-13.62,56.61-12.8,7.69-30.08,21.53,12.16,20.5-13.44,6.15-12.16,13.84-1.28,25.12-22.01-14.56-55.83-5.06-57.32,21.88-5.92,1.54-11.78,4.72-16.82,9.92-15.73-24.74-54.82-26.21-69.8-8.77v102.6h640v-127.86c-21.82-.49-44.83,9.33-45.85,28.49ZM282.72,264.76l1.87-.02c-.24.64-.46,1.3-.66,1.96-.38-.66-.79-1.31-1.21-1.94Z"/>
        <path class="cls-11" d="M613.43,253.53c13.84-17.84-11.52-22.04-19.84-7.69,13.07-27.88-50.62-32.65-60.62-20.94,11.54-18.4-6.92-25.65-31.53-19.51,28.56-32.53-13.99-54.57-35.01-40.2,16.92-39.58-54.34-62.43-86.64-30.66-.77-37.35-33.06-24.62-33.83-2.87-18.45-37.35-144.03-36.73-143.03,14.85-26.15-15.05-56.33-8.41-28.94,20.17-41.01.18-70.09,45.47-42.4,67.21-32.3-7.8-64.21-2.37-73.85,26.12-8.06-6.65-31.5-8.24-58.06-5.81v51.8h640v-44.78c0-15.38-22.07-10.72-26.25-7.69Z"/>
      </g>
      <path class="cls-11" d="M553.15,144.56c11.14,1.99,7.43,9.25.26,9.66,3,3.95-4.75,13.6-14.54,6.1-2.45,5.63-11.01,5.25-14.28-.75-6.91,3.02-12.24-3.5-8.94-7.74-5.48-1.27-4.84-9.3,2.41-7.52-1.04-10.05,12.92-12.13,17.13-4.5,5.71-8.5,18.38-3.17,17.95,4.75Z"/>
      <path class="cls-11" d="M418.73,77.15c11.14,1.99,7.43,9.25.26,9.66,3,3.95-4.75,13.6-14.54,6.1-2.45,5.63-11.01,5.25-14.28-.75-6.91,3.02-12.24-3.5-8.94-7.74-5.48-1.27-4.84-9.3,2.41-7.52-1.04-10.05,12.92-12.13,17.13-4.5,5.71-8.5,18.38-3.17,17.95,4.75Z"/>
      <g class="cls-12">
        <path class="cls-11" d="M17.85,155.85c-12.49-2.23-7.85-12.09.2-12.56-3.37-4.43,5.32-15.27,16.31-6.85-1.4-6.72,11.41-6.71,13.24.45,6.41-7.16,16.93,2.11,12.8,9.08,6.14,1.42,5.43,10.45-2.7,8.44,1.17,11.29-14.49,13.62-19.22,5.05-6.41,9.55-21.11,5.27-20.63-3.63Z"/>
      </g>
      <path class="cls-11" d="M133.38,152.51c11.22-.33,11.22,10.98-.7,11.05,3.87,4.5-2.7,14.11-12.68,8.25-2.32,4.74-14.47,7.99-20.62-1.33-7.99,4.03-15.39-2.12-11.78-7.36-8.12-1.96-5.3-13.6,3.46-11.94-.72-8.99,14.47-14.64,20.99-4.99,6.88-11.31,26.05-2,21.35,6.32Z"/>
      <path class="cls-11" d="M283.51,75.2c10.91-.32,10.91,10.68-.69,10.75,3.76,4.38-2.62,13.72-12.34,8.02-2.26,4.61-14.08,7.77-20.06-1.29-7.77,3.92-14.97-2.06-11.46-7.16-7.9-1.9-5.16-13.23,3.37-11.62-.7-8.74,14.08-14.24,20.41-4.86,6.69-11.01,25.34-1.94,20.77,6.15Z"/>
      <path class="cls-9" d="M603.67,155.89c-2.45-10.93-19.2-10.98-19.78.02-7.35-8.62-19.96,2.43-12.07,8.87-14.43-5.22-14.85,15.67.71,11.66,1.32,12.5,19.23,10.35,20.68,1.31,6.54,12.5,20.7,6.74,18.95-1.73,15.34,5.34,13.19-10.77,3.93-11.14,7.24-6.68-3.35-14.95-12.42-8.99Z"/>
      <g>
        <path class="cls-11" d="M494.84,96.71c0,1.04.97,1.89,2.17,1.89s2.17-.85,2.17-1.89-.97-1.89-2.17-1.89-2.17.85-2.17,1.89Z"/>
        <path class="cls-11" d="M557.06,152.84c0,1.04.97,1.89,2.17,1.89s2.17-.85,2.17-1.89-.97-1.89-2.17-1.89-2.17.85-2.17,1.89Z"/>
        <path class="cls-11" d="M67.06,55.75c0,1.04.97,1.89,2.17,1.89s2.17-.85,2.17-1.89-.97-1.89-2.17-1.89-2.17.85-2.17,1.89Z"/>
        <path class="cls-11" d="M304.88,99.34c0,1.04.97,1.89,2.17,1.89s2.17-.85,2.17-1.89-.97-1.89-2.17-1.89-2.17.85-2.17,1.89Z"/>
        <path class="cls-11" d="M91.94,117.93c0,1.04.97,1.89,2.17,1.89s2.17-.85,2.17-1.89-.97-1.89-2.17-1.89-2.17.85-2.17,1.89Z"/>
        <path class="cls-11" d="M286.69,146.69c0,.59.55,1.06,1.22,1.06s1.22-.48,1.22-1.06-.55-1.06-1.22-1.06-1.22.48-1.22,1.06Z"/>
        <path class="cls-11" d="M303.97,164.39c0,.59.55,1.06,1.22,1.06s1.22-.48,1.22-1.06-.54-1.06-1.22-1.06-1.22.48-1.22,1.06Z"/>
        <path class="cls-11" d="M182.63,207.3c0,.59.55,1.06,1.22,1.06s1.22-.48,1.22-1.06-.55-1.07-1.22-1.07-1.22.48-1.22,1.07Z"/>
        <path class="cls-11" d="M267.93,258.82c0,.59.55,1.06,1.22,1.06s1.22-.48,1.22-1.06-.55-1.06-1.22-1.06-1.22.47-1.22,1.06Z"/>
        <path class="cls-11" d="M113.89,106.49c0,.59.54,1.06,1.22,1.06s1.22-.48,1.22-1.06-.55-1.06-1.22-1.06-1.22.48-1.22,1.06Z"/>
        <path class="cls-11" d="M371.56,109.07c0,.59.55,1.06,1.22,1.06s1.22-.48,1.22-1.06-.55-1.06-1.22-1.06-1.22.48-1.22,1.06Z"/>
        <path class="cls-11" d="M370.67,142.04c0,.4.37.73.84.73s.84-.33.84-.73-.37-.73-.84-.73-.84.33-.84.73Z"/>
        <path class="cls-11" d="M442.1,102.44c0,.4.38.73.84.73s.84-.33.84-.73-.38-.73-.84-.73-.84.33-.84.73Z"/>
        <path class="cls-11" d="M446.68,129.87c0,.4.38.73.84.73s.84-.33.84-.73-.37-.73-.84-.73-.84.33-.84.73Z"/>
        <path class="cls-11" d="M416.19,125.45c0,.4.37.73.84.73s.84-.33.84-.73-.38-.73-.84-.73-.84.33-.84.73Z"/>
        <path class="cls-11" d="M415.14,159.05c0,.4.38.73.84.73s.84-.33.84-.73-.38-.73-.84-.73-.84.33-.84.73Z"/>
        <path class="cls-11" d="M385.15,147.1c0,.4.37.73.84.73s.84-.33.84-.73-.38-.73-.84-.73-.84.33-.84.73Z"/>
        <path class="cls-11" d="M425.95,140.98c0,.61.56,1.1,1.26,1.1s1.26-.49,1.26-1.1-.56-1.1-1.26-1.1-1.26.49-1.26,1.1Z"/>
        <path class="cls-11" d="M404.65,143.91c0,.61.56,1.1,1.26,1.1s1.26-.49,1.26-1.1-.56-1.1-1.26-1.1-1.26.49-1.26,1.1Z"/>
        <path class="cls-11" d="M398.71,155.98c0,.61.56,1.1,1.26,1.1s1.26-.49,1.26-1.1-.56-1.1-1.26-1.1-1.26.49-1.26,1.1Z"/>
        <path class="cls-11" d="M351.44,151.47c0,.61.56,1.1,1.26,1.1s1.26-.49,1.26-1.1-.56-1.1-1.26-1.1-1.26.49-1.26,1.1Z"/>
        <path class="cls-11" d="M483.38,111.46c0,.61.56,1.1,1.26,1.1s1.26-.49,1.26-1.1-.56-1.09-1.26-1.09-1.26.49-1.26,1.09Z"/>
        <path class="cls-11" d="M456.14,126.46c0,.61.56,1.1,1.26,1.1s1.26-.49,1.26-1.1-.56-1.1-1.26-1.1-1.26.49-1.26,1.1Z"/>
        <path class="cls-11" d="M416.89,109.65c0,.91.84,1.64,1.89,1.64s1.89-.74,1.89-1.64-.84-1.64-1.89-1.64-1.89.74-1.89,1.64Z"/>
        <path class="cls-11" d="M383.14,163.63c0,.61.56,1.1,1.26,1.1s1.26-.49,1.26-1.1-.56-1.09-1.26-1.09-1.26.49-1.26,1.09Z"/>
        <path class="cls-11" d="M355.9,178.63c0,.61.56,1.1,1.26,1.1s1.26-.49,1.26-1.1-.56-1.09-1.26-1.09-1.26.49-1.26,1.09Z"/>
        <path class="cls-11" d="M308.64,174.12c0,.61.56,1.1,1.26,1.1s1.26-.49,1.26-1.1-.56-1.09-1.26-1.09-1.26.49-1.26,1.09Z"/>
        <path class="cls-11" d="M363.07,189.7c0,.61.56,1.1,1.26,1.1s1.26-.49,1.26-1.1-.56-1.1-1.26-1.1-1.26.49-1.26,1.1Z"/>
        <path class="cls-11" d="M335.83,204.7c0,.61.56,1.1,1.26,1.1s1.26-.49,1.26-1.1-.56-1.09-1.26-1.09-1.26.49-1.26,1.09Z"/>
        <path class="cls-11" d="M288.56,200.19c0,.61.56,1.1,1.26,1.1s1.26-.49,1.26-1.1-.56-1.1-1.26-1.1-1.26.49-1.26,1.1Z"/>
        <path class="cls-11" d="M138.61,239.9c0,.61.56,1.1,1.26,1.1s1.26-.49,1.26-1.1-.56-1.09-1.26-1.09-1.26.49-1.26,1.09Z"/>
        <path class="cls-11" d="M263.06,197.02c0,.61.56,1.1,1.26,1.1s1.26-.49,1.26-1.1-.56-1.09-1.26-1.09-1.26.49-1.26,1.09Z"/>
        <path class="cls-11" d="M235.81,212.02c0,.61.56,1.1,1.26,1.1s1.26-.49,1.26-1.1-.56-1.09-1.26-1.09-1.26.49-1.26,1.09Z"/>
        <path class="cls-11" d="M215.85,234.68c0,.61.56,1.1,1.26,1.1s1.26-.49,1.26-1.1-.56-1.09-1.26-1.09-1.26.49-1.26,1.09Z"/>
        <path class="cls-11" d="M239.61,237.84c0,.61.56,1.09,1.26,1.09s1.26-.49,1.26-1.09-.56-1.1-1.26-1.1-1.26.49-1.26,1.1Z"/>
        <path class="cls-11" d="M508.62,242.34c0,.61.56,1.1,1.26,1.1s1.26-.49,1.26-1.1-.56-1.1-1.26-1.1-1.26.49-1.26,1.1Z"/>
        <path class="cls-11" d="M158.35,245.46c0,.61.56,1.1,1.25,1.1s1.26-.49,1.26-1.1-.56-1.09-1.26-1.09-1.25.49-1.25,1.09Z"/>
        <path class="cls-11" d="M290.29,212.11c0,.6.56,1.09,1.26,1.09s1.26-.49,1.26-1.09-.56-1.1-1.26-1.1-1.26.49-1.26,1.1Z"/>
        <path class="cls-11" d="M341.93,267.5c0,.6.56,1.1,1.26,1.1s1.26-.49,1.26-1.1-.56-1.1-1.26-1.1-1.26.49-1.26,1.1Z"/>
        <path class="cls-11" d="M263.05,227.12c0,.61.56,1.09,1.26,1.09s1.26-.49,1.26-1.09-.56-1.09-1.26-1.09-1.26.49-1.26,1.09Z"/>
        <path class="cls-11" d="M466.05,94.84c0,.6.56,1.09,1.26,1.09s1.26-.49,1.26-1.09-.56-1.1-1.26-1.1-1.26.49-1.26,1.1Z"/>
        <path class="cls-11" d="M438.81,109.84c0,.61.56,1.1,1.26,1.1s1.26-.49,1.26-1.1-.56-1.09-1.26-1.09-1.26.49-1.26,1.09Z"/>
        <path class="cls-11" d="M391.55,105.34c0,.61.56,1.1,1.26,1.1s1.26-.49,1.26-1.1-.56-1.09-1.26-1.09-1.26.49-1.26,1.09Z"/>
        <path class="cls-11" d="M389.31,74.58c0,.61.56,1.1,1.26,1.1s1.26-.49,1.26-1.1-.56-1.1-1.26-1.1-1.26.49-1.26,1.1Z"/>
        <path class="cls-11" d="M362.07,89.58c0,.61.56,1.1,1.26,1.1s1.26-.49,1.26-1.1-.56-1.09-1.26-1.09-1.26.49-1.26,1.09Z"/>
        <path class="cls-11" d="M314.81,85.07c0,.61.56,1.1,1.26,1.1s1.26-.49,1.26-1.1-.56-1.1-1.26-1.1-1.26.49-1.26,1.1Z"/>
        <path class="cls-11" d="M235.59,106.2c0,.61.56,1.1,1.26,1.1s1.26-.49,1.26-1.1-.56-1.1-1.26-1.1-1.26.49-1.26,1.1Z"/>
        <path class="cls-11" d="M520.24,67.39c0,.61.56,1.1,1.26,1.1s1.26-.49,1.26-1.1-.56-1.1-1.26-1.1-1.26.49-1.26,1.1Z"/>
        <path class="cls-11" d="M453.83,80.62c0,.61.56,1.1,1.26,1.1s1.26-.49,1.26-1.1-.56-1.09-1.26-1.09-1.26.49-1.26,1.09Z"/>
        <path class="cls-11" d="M407.39,71.28c0,.61.56,1.1,1.26,1.1s1.26-.49,1.26-1.1-.56-1.1-1.26-1.1-1.26.49-1.26,1.1Z"/>
        <path class="cls-11" d="M353.17,60.78c0,.6.56,1.09,1.26,1.09s1.26-.49,1.26-1.09-.56-1.1-1.26-1.1-1.26.49-1.26,1.1Z"/>
        <path class="cls-11" d="M325.92,75.78c0,.61.56,1.1,1.26,1.1s1.25-.49,1.25-1.1-.56-1.09-1.25-1.09-1.26.49-1.26,1.09Z"/>
        <path class="cls-11" d="M278.66,71.28c0,.61.56,1.1,1.26,1.1s1.26-.49,1.26-1.1-.56-1.1-1.26-1.1-1.26.49-1.26,1.1Z"/>
        <path class="cls-11" d="M262.05,104.67c0,.61.56,1.1,1.26,1.1s1.26-.49,1.26-1.1-.56-1.1-1.26-1.1-1.26.49-1.26,1.1Z"/>
        <path class="cls-11" d="M273.18,95.38c0,.61.56,1.1,1.26,1.1s1.26-.49,1.26-1.1-.56-1.09-1.26-1.09-1.26.49-1.26,1.09Z"/>
        <path class="cls-11" d="M225.91,90.88c0,.61.56,1.1,1.26,1.1s1.26-.49,1.26-1.1-.56-1.1-1.26-1.1-1.26.49-1.26,1.1Z"/>
        <path class="cls-11" d="M185.15,111.61c0,.6.56,1.1,1.26,1.1s1.26-.49,1.26-1.1-.56-1.1-1.26-1.1-1.26.49-1.26,1.1Z"/>
        <path class="cls-11" d="M200.89,114.39c0,.61.56,1.1,1.26,1.1s1.26-.49,1.26-1.1-.56-1.09-1.26-1.09-1.26.49-1.26,1.09Z"/>
        <path class="cls-11" d="M130.03,103.04c0,.61.56,1.1,1.26,1.1s1.26-.49,1.26-1.1-.56-1.09-1.26-1.09-1.26.49-1.26,1.09Z"/>
        <path class="cls-11" d="M120.44,147.49c0,.61.56,1.1,1.26,1.1s1.26-.49,1.26-1.1-.56-1.1-1.26-1.1-1.26.49-1.26,1.1Z"/>
        <path class="cls-11" d="M357.71,143.12c0,.4.38.73.84.73s.84-.33.84-.73-.37-.73-.84-.73-.84.33-.84.73Z"/>
        <path class="cls-11" d="M420.91,86.07c0,.4.37.73.84.73s.84-.33.84-.73-.38-.73-.84-.73-.84.33-.84.73Z"/>
        <path class="cls-11" d="M435.39,91.13c0,.4.38.73.84.73s.84-.33.84-.73-.37-.73-.84-.73-.84.33-.84.73Z"/>
        <path class="cls-11" d="M407.95,87.14c0,.4.38.73.84.73s.84-.33.84-.73-.38-.73-.84-.73-.84.33-.84.73Z"/>
        <path class="cls-11" d="M356.55,74.43c0,.4.38.73.84.73s.84-.33.84-.73-.37-.73-.84-.73-.84.33-.84.73Z"/>
        <path class="cls-11" d="M371.03,79.49c0,.4.38.73.84.73s.84-.33.84-.73-.38-.73-.84-.73-.84.33-.84.73Z"/>
        <path class="cls-11" d="M343.59,75.5c0,.4.37.73.84.73s.84-.33.84-.73-.37-.73-.84-.73-.84.33-.84.73Z"/>
        <path class="cls-11" d="M126.81,91.24c0,.4.37.73.84.73s.84-.33.84-.73-.37-.73-.84-.73-.84.33-.84.73Z"/>
        <path class="cls-11" d="M141.3,96.3c0,.4.38.73.84.73s.84-.33.84-.73-.37-.73-.84-.73-.84.33-.84.73Z"/>
        <path class="cls-11" d="M113.85,92.32c0,.4.37.73.84.73s.84-.33.84-.73-.38-.73-.84-.73-.84.33-.84.73Z"/>
        <path class="cls-11" d="M339.71,90.81c0,.4.38.73.84.73s.84-.33.84-.73-.38-.73-.84-.73-.84.33-.84.73Z"/>
        <path class="cls-11" d="M354.2,95.87c0,.4.37.73.84.73s.84-.33.84-.73-.37-.73-.84-.73-.84.33-.84.73Z"/>
        <path class="cls-11" d="M326.75,91.89c0,.4.38.73.84.73s.84-.33.84-.73-.37-.73-.84-.73-.84.33-.84.73Z"/>
        <path class="cls-11" d="M366.3,124.74c0,.4.37.73.84.73s.84-.33.84-.73-.38-.73-.84-.73-.84.33-.84.73Z"/>
        <path class="cls-11" d="M380.78,129.8c0,.4.38.73.84.73s.84-.33.84-.73-.38-.73-.84-.73-.84.33-.84.73Z"/>
        <path class="cls-11" d="M353.34,125.82c0,.4.37.73.84.73s.84-.33.84-.73-.37-.73-.84-.73-.84.33-.84.73Z"/>
        <path class="cls-11" d="M317.93,181.35c0,.4.37.73.84.73s.84-.33.84-.73-.37-.73-.84-.73-.84.33-.84.73Z"/>
        <path class="cls-11" d="M332.41,186.41c0,.4.38.73.84.73s.84-.33.84-.73-.38-.73-.84-.73-.84.33-.84.73Z"/>
        <path class="cls-11" d="M304.97,182.43c0,.4.38.73.84.73s.84-.33.84-.73-.37-.73-.84-.73-.84.33-.84.73Z"/>
        <path class="cls-11" d="M318.42,149.88c0,.4.38.73.84.73s.84-.33.84-.73-.37-.73-.84-.73-.84.33-.84.73Z"/>
        <path class="cls-11" d="M332.9,154.94c0,.41.38.73.84.73s.84-.33.84-.73-.38-.73-.84-.73-.84.33-.84.73Z"/>
        <path class="cls-11" d="M305.46,150.95c0,.4.37.73.84.73s.84-.33.84-.73-.38-.73-.84-.73-.84.33-.84.73Z"/>
        <path class="cls-11" d="M264.45,178.33c0,.4.38.73.84.73s.84-.33.84-.73-.37-.73-.84-.73-.84.33-.84.73Z"/>
        <path class="cls-11" d="M278.94,183.39c0,.4.37.73.84.73s.84-.33.84-.73-.38-.73-.84-.73-.84.33-.84.73Z"/>
        <path class="cls-11" d="M251.49,179.41c0,.4.38.73.84.73s.84-.33.84-.73-.38-.73-.84-.73-.84.33-.84.73Z"/>
        <path class="cls-11" d="M220.54,184.67c0,.4.37.73.84.73s.84-.33.84-.73-.38-.73-.84-.73-.84.33-.84.73Z"/>
        <path class="cls-11" d="M235.02,189.73c0,.4.38.73.84.73s.84-.33.84-.73-.37-.73-.84-.73-.84.33-.84.73Z"/>
        <path class="cls-11" d="M207.58,185.74c0,.4.37.73.84.73s.84-.33.84-.73-.37-.73-.84-.73-.84.33-.84.73Z"/>
        <path class="cls-11" d="M328.74,140.08c0,.4.37.73.84.73s.84-.33.84-.73-.37-.73-.84-.73-.84.33-.84.73Z"/>
        <path class="cls-11" d="M253.05,161.74c0,.4.37.73.84.73s.84-.33.84-.73-.38-.73-.84-.73-.84.33-.84.73Z"/>
        <path class="cls-11" d="M379.06,180.3c0,.4.38.73.84.73s.84-.33.84-.73-.37-.73-.84-.73-.84.33-.84.73Z"/>
        <path class="cls-11" d="M299.78,193.57c0,.4.37.73.84.73s.84-.33.84-.73-.38-.73-.84-.73-.84.33-.84.73Z"/>
        <path class="cls-11" d="M316.55,213.04c0,.4.38.73.84.73s.84-.33.84-.73-.38-.73-.84-.73-.84.33-.84.73Z"/>
        <path class="cls-11" d="M257.6,205.08c0,.4.37.73.84.73s.84-.33.84-.73-.37-.73-.84-.73-.84.33-.84.73Z"/>
        <path class="cls-11" d="M268.27,61.28c0,.4.38.73.84.73s.84-.33.84-.73-.38-.73-.84-.73-.84.33-.84.73Z"/>
        <path class="cls-11" d="M126.99,68.26c0,.4.38.73.84.73s.84-.33.84-.73-.37-.73-.84-.73-.84.33-.84.73Z"/>
        <path class="cls-11" d="M103.86,76.88c0,.4.37.73.84.73s.84-.33.84-.73-.37-.73-.84-.73-.84.33-.84.73Z"/>
        <path class="cls-11" d="M52.2,215.71c0,.4.38.73.84.73s.84-.33.84-.73-.37-.73-.84-.73-.84.33-.84.73Z"/>
        <path class="cls-11" d="M107.16,232.09c0,.4.37.73.84.73s.84-.33.84-.73-.37-.73-.84-.73-.84.33-.84.73Z"/>
        <path class="cls-11" d="M86.71,216.7c0,.4.37.73.84.73s.84-.33.84-.73-.38-.73-.84-.73-.84.33-.84.73Z"/>
        <path class="cls-11" d="M150.33,55.08c0,.4.38.73.84.73s.84-.33.84-.73-.37-.73-.84-.73-.84.33-.84.73Z"/>
        <path class="cls-11" d="M61.43,101.08c0,.4.38.73.84.73s.84-.33.84-.73-.38-.73-.84-.73-.84.33-.84.73Z"/>
        <path class="cls-11" d="M214.91,113.03c0,.4.38.73.84.73s.84-.33.84-.73-.37-.73-.84-.73-.84.33-.84.73Z"/>
        <path class="cls-11" d="M394.3,95.77c0,.4.37.73.84.73s.84-.33.84-.73-.37-.73-.84-.73-.84.33-.84.73Z"/>
        <path class="cls-11" d="M453.76,67.45c0,.4.37.73.84.73s.84-.33.84-.73-.37-.73-.84-.73-.84.33-.84.73Z"/>
        <path class="cls-11" d="M507.39,73.72c0,.4.37.73.84.73s.84-.33.84-.73-.37-.73-.84-.73-.84.33-.84.73Z"/>
        <path class="cls-11" d="M426.87,101.61c0,.24.22.43.49.43s.49-.19.49-.43-.22-.43-.49-.43-.49.19-.49.43Z"/>
        <path class="cls-11" d="M420.27,79.41c0,.24.22.43.49.43s.49-.19.49-.43-.22-.43-.49-.43-.49.19-.49.43Z"/>
        <path class="cls-11" d="M383.46,88.52c0,.24.22.43.49.43s.49-.19.49-.43-.22-.43-.49-.43-.49.19-.49.43Z"/>
        <path class="cls-11" d="M381.32,104.91c0,.24.22.43.49.43s.49-.19.49-.43-.22-.43-.49-.43-.49.19-.49.43Z"/>
        <path class="cls-11" d="M384.29,118.13c0,.24.22.43.49.43s.49-.19.49-.43-.22-.43-.49-.43-.49.19-.49.43Z"/>
        <path class="cls-11" d="M415.15,101.46c0,.24.22.43.49.43s.49-.19.49-.43-.22-.43-.49-.43-.49.19-.49.43Z"/>
        <path class="cls-11" d="M477.7,125.9c0,.24.22.43.49.43s.49-.19.49-.43-.22-.43-.49-.43-.49.19-.49.43Z"/>
        <path class="cls-11" d="M471.1,103.7c0,.24.22.43.49.43s.49-.19.49-.43-.22-.43-.49-.43-.49.19-.49.43Z"/>
        <path class="cls-11" d="M434.3,112.81c0,.24.22.43.49.43s.49-.19.49-.43-.22-.43-.49-.43-.49.19-.49.43Z"/>
        <path class="cls-11" d="M465.98,125.74c0,.24.22.43.49.43s.49-.19.49-.43-.22-.43-.49-.43-.49.19-.49.43Z"/>
        <path class="cls-11" d="M423.24,61.37c0,.24.22.43.49.43s.49-.19.49-.43-.22-.43-.49-.43-.49.19-.49.43Z"/>
        <path class="cls-11" d="M411.52,61.21c0,.24.22.43.49.43s.49-.19.49-.43-.22-.43-.49-.43-.49.19-.49.43Z"/>
        <path class="cls-11" d="M302.26,84.23c0,.24.22.43.49.43s.49-.19.49-.43-.22-.43-.49-.43-.49.19-.49.43Z"/>
        <path class="cls-11" d="M295.67,62.02c0,.24.22.43.49.43s.49-.19.49-.43-.22-.43-.49-.43-.49.19-.49.43Z"/>
        <path class="cls-11" d="M258.86,71.13c0,.24.22.43.49.43s.49-.19.49-.43-.22-.43-.49-.43-.49.19-.49.43Z"/>
        <path class="cls-11" d="M290.55,84.07c0,.24.22.43.49.43s.49-.19.49-.43-.22-.43-.49-.43-.49.19-.49.43Z"/>
        <path class="cls-11" d="M345.34,143.72c0,.24.22.43.49.43s.49-.19.49-.43-.22-.43-.49-.43-.49.19-.49.43Z"/>
        <path class="cls-11" d="M338.74,121.52c0,.24.22.43.49.43s.49-.19.49-.43-.22-.43-.49-.43-.49.19-.49.43Z"/>
        <path class="cls-11" d="M301.94,130.63c0,.24.22.43.49.43s.49-.19.49-.43-.22-.43-.49-.43-.49.19-.49.43Z"/>
        <path class="cls-11" d="M333.62,143.56c0,.24.22.43.49.43s.49-.19.49-.43-.22-.43-.49-.43-.49.19-.49.43Z"/>
        <path class="cls-11" d="M162.48,260.06c0,.24.22.43.49.43s.49-.19.49-.43-.22-.43-.49-.43-.49.19-.49.43Z"/>
        <path class="cls-11" d="M125.68,269.17c0,.24.22.43.49.43s.49-.19.49-.43-.22-.43-.49-.43-.49.19-.49.43Z"/>
        <path class="cls-11" d="M283.46,267.6c0,.24.22.43.49.43s.49-.19.49-.43-.22-.43-.49-.43-.49.19-.49.43Z"/>
        <path class="cls-11" d="M276.86,245.4c0,.24.22.43.49.43s.49-.19.49-.43-.22-.43-.49-.43-.49.19-.49.43Z"/>
        <path class="cls-11" d="M240.05,254.51c0,.24.22.43.49.43s.49-.19.49-.43-.22-.43-.49-.43-.49.19-.49.43Z"/>
        <path class="cls-11" d="M271.74,267.44c0,.24.22.43.49.43s.49-.19.49-.43-.22-.43-.49-.43-.49.19-.49.43Z"/>
        <path class="cls-11" d="M372.91,254.03c0,.24.22.43.49.43s.49-.19.49-.43-.22-.43-.49-.43-.49.19-.49.43Z"/>
        <path class="cls-11" d="M336.1,263.13c0,.23.22.43.49.43s.49-.19.49-.43-.22-.43-.49-.43-.49.19-.49.43Z"/>
        <path class="cls-11" d="M453.77,271.49c0,.23.22.43.49.43s.49-.19.49-.43-.22-.43-.49-.43-.49.19-.49.43Z"/>
        <path class="cls-11" d="M447.17,249.29c0,.24.22.43.49.43s.49-.19.49-.43-.22-.43-.49-.43-.49.19-.49.43Z"/>
        <path class="cls-11" d="M410.37,258.4c0,.23.22.43.49.43s.49-.19.49-.43-.22-.43-.49-.43-.49.19-.49.43Z"/>
        <path class="cls-11" d="M442.05,271.33c0,.24.22.43.49.43s.49-.19.49-.43-.22-.43-.49-.43-.49.19-.49.43Z"/>
        <path class="cls-11" d="M212.16,100.76c0,.24.22.43.49.43s.49-.19.49-.43-.22-.43-.49-.43-.49.19-.49.43Z"/>
        <path class="cls-11" d="M205.56,78.55c0,.24.22.43.49.43s.49-.19.49-.43-.22-.43-.49-.43-.49.19-.49.43Z"/>
        <path class="cls-11" d="M168.75,87.66c0,.24.22.43.49.43s.49-.19.49-.43-.22-.43-.49-.43-.49.19-.49.43Z"/>
        <path class="cls-11" d="M200.44,100.6c0,.24.22.43.49.43s.49-.19.49-.43-.22-.43-.49-.43-.49.19-.49.43Z"/>
        <path class="cls-11" d="M116.11,55.05c0,.24.22.43.49.43s.49-.19.49-.43-.22-.43-.49-.43-.49.19-.49.43Z"/>
        <path class="cls-11" d="M104.39,54.9c0,.24.22.43.49.43s.49-.19.49-.43-.22-.43-.49-.43-.49.19-.49.43Z"/>
        <path class="cls-11" d="M325.54,218.03c0,.24.22.43.49.43s.49-.19.49-.43-.22-.43-.49-.43-.49.19-.49.43Z"/>
        <path class="cls-11" d="M318.94,195.82c0,.24.22.43.49.43s.49-.19.49-.43-.22-.43-.49-.43-.49.19-.49.43Z"/>
        <path class="cls-11" d="M282.13,204.93c0,.24.22.43.49.43s.49-.19.49-.43-.22-.43-.49-.43-.49.19-.49.43Z"/>
        <path class="cls-11" d="M313.82,217.87c0,.24.22.43.49.43s.49-.19.49-.43-.22-.43-.49-.43-.49.19-.49.43Z"/>
        <path class="cls-11" d="M463.82,57.34c0,.4.38.73.84.73s.84-.33.84-.73-.38-.73-.84-.73-.84.33-.84.73Z"/>
        <path class="cls-11" d="M433.43,166.14c0,.4.37.73.84.73s.84-.33.84-.73-.38-.73-.84-.73-.84.33-.84.73Z"/>
        <path class="cls-11" d="M457.29,163.06c0,.4.38.73.84.73s.84-.33.84-.73-.37-.73-.84-.73-.84.33-.84.73Z"/>
        <path class="cls-11" d="M321.15,67.92c0,.4.37.73.84.73s.84-.33.84-.73-.38-.73-.84-.73-.84.33-.84.73Z"/>
        <path class="cls-11" d="M289.61,97.1c0,.4.37.73.84.73s.84-.33.84-.73-.38-.73-.84-.73-.84.33-.84.73Z"/>
        <path class="cls-11" d="M259.63,85.15c0,.4.37.73.84.73s.84-.33.84-.73-.37-.73-.84-.73-.84.33-.84.73Z"/>
        <path class="cls-11" d="M253.53,118.34c0,.4.37.73.84.73s.84-.33.84-.73-.37-.73-.84-.73-.84.33-.84.73Z"/>
        <path class="cls-11" d="M331.76,101.11c0,.4.38.73.84.73s.84-.33.84-.73-.37-.73-.84-.73-.84.33-.84.73Z"/>
        <path class="cls-11" d="M400.4,78.51c0,.4.37.73.84.73s.84-.33.84-.73-.38-.73-.84-.73-.84.33-.84.73Z"/>
        <path class="cls-11" d="M370.42,66.56c0,.4.38.73.84.73s.84-.33.84-.73-.38-.73-.84-.73-.84.33-.84.73Z"/>
        <path class="cls-11" d="M438.73,56.89c0,.4.37.73.84.73s.84-.33.84-.73-.37-.73-.84-.73-.84.33-.84.73Z"/>
        <path class="cls-11" d="M364.32,99.75c0,.4.37.73.84.73s.84-.33.84-.73-.38-.73-.84-.73-.84.33-.84.73Z"/>
        <path class="cls-11" d="M442.55,82.52c0,.4.38.73.84.73s.84-.33.84-.73-.38-.73-.84-.73-.84.33-.84.73Z"/>
        <path class="cls-11" d="M527.48,95.36c0,.4.37.73.84.73s.84-.33.84-.73-.37-.73-.84-.73-.84.33-.84.73Z"/>
        <path class="cls-11" d="M495.94,124.54c0,.4.38.73.84.73s.84-.33.84-.73-.37-.73-.84-.73-.84.33-.84.73Z"/>
        <path class="cls-11" d="M465.96,112.59c0,.4.37.73.84.73s.84-.33.84-.73-.37-.73-.84-.73-.84.33-.84.73Z"/>
        <path class="cls-11" d="M459.86,145.78c0,.4.38.73.84.73s.84-.33.84-.73-.37-.73-.84-.73-.84.33-.84.73Z"/>
        <path class="cls-11" d="M538.09,128.55c0,.4.38.73.84.73s.84-.33.84-.73-.37-.73-.84-.73-.84.33-.84.73Z"/>
        <path class="cls-11" d="M482.76,172.36c0,.4.37.73.84.73s.84-.33.84-.73-.38-.73-.84-.73-.84.33-.84.73Z"/>
        <path class="cls-11" d="M490.23,169.3c0,.4.38.73.84.73s.84-.33.84-.73-.38-.73-.84-.73-.84.33-.84.73Z"/>
        <path class="cls-11" d="M499.32,174.03c0,.4.38.73.84.73s.84-.33.84-.73-.37-.73-.84-.73-.84.33-.84.73Z"/>
        <path class="cls-11" d="M558.73,198.75c0,.4.38.73.84.73s.84-.33.84-.73-.38-.73-.84-.73-.84.33-.84.73Z"/>
        <path class="cls-11" d="M565,225.77c0,.4.38.73.84.73s.84-.33.84-.73-.38-.73-.84-.73-.84.33-.84.73Z"/>
        <path class="cls-11" d="M555.1,212.84c0,.4.38.73.84.73s.84-.33.84-.73-.38-.73-.84-.73-.84.33-.84.73Z"/>
        <path class="cls-11" d="M582.17,208.81c0,.4.38.73.84.73s.84-.33.84-.73-.38-.73-.84-.73-.84.33-.84.73Z"/>
        <path class="cls-11" d="M583.31,235.1c0,.4.37.73.84.73s.84-.33.84-.73-.37-.73-.84-.73-.84.33-.84.73Z"/>
        <path class="cls-11" d="M586.43,245.03c0,.4.38.73.84.73s.84-.33.84-.73-.38-.73-.84-.73-.84.33-.84.73Z"/>
        <path class="cls-11" d="M571.1,239.85c0,.4.37.73.84.73s.84-.33.84-.73-.38-.73-.84-.73-.84.33-.84.73Z"/>
        <path class="cls-11" d="M587.6,258.82c0,.4.38.73.84.73s.84-.33.84-.73-.38-.73-.84-.73-.84.33-.84.73Z"/>
        <path class="cls-11" d="M507.24,168.86c0,.4.38.73.84.73s.84-.33.84-.73-.37-.73-.84-.73-.84.33-.84.73Z"/>
        <path class="cls-11" d="M519.45,172.02c0,.4.38.73.84.73s.84-.33.84-.73-.38-.73-.84-.73-.84.33-.84.73Z"/>
        <path class="cls-11" d="M524.55,178.06c0,.4.38.73.84.73s.84-.33.84-.73-.37-.73-.84-.73-.84.33-.84.73Z"/>
        <path class="cls-11" d="M526.53,189.55c0,.4.38.73.84.73s.84-.33.84-.73-.38-.73-.84-.73-.84.33-.84.73Z"/>
        <path class="cls-11" d="M537.91,192.72c0,.4.38.73.84.73s.84-.33.84-.73-.38-.73-.84-.73-.84.33-.84.73Z"/>
        <path class="cls-11" d="M527.97,221.29c0,.4.38.73.84.73s.84-.33.84-.73-.37-.73-.84-.73-.84.33-.84.73Z"/>
        <path class="cls-11" d="M340.97,201.12c0,.4.37.73.84.73s.84-.33.84-.73-.37-.73-.84-.73-.84.33-.84.73Z"/>
        <path class="cls-11" d="M309.43,230.3c0,.4.38.73.84.73s.84-.33.84-.73-.37-.73-.84-.73-.84.33-.84.73Z"/>
        <path class="cls-11" d="M279.45,218.35c0,.4.38.73.84.73s.84-.33.84-.73-.38-.73-.84-.73-.84.33-.84.73Z"/>
        <path class="cls-11" d="M351.58,234.31c0,.4.38.73.84.73s.84-.33.84-.73-.38-.73-.84-.73-.84.33-.84.73Z"/>
        <path class="cls-11" d="M420.25,227.67c0,.4.38.73.84.73s.84-.33.84-.73-.37-.73-.84-.73-.84.33-.84.73Z"/>
        <path class="cls-11" d="M358.73,244.91c0,.4.37.73.84.73s.84-.33.84-.73-.37-.73-.84-.73-.84.33-.84.73Z"/>
        <path class="cls-11" d="M435.91,261.69c0,.4.37.73.84.73s.84-.33.84-.73-.38-.73-.84-.73-.84.33-.84.73Z"/>
        <path class="cls-11" d="M469.04,233.43c0,.4.38.73.84.73s.84-.33.84-.73-.37-.73-.84-.73-.84.33-.84.73Z"/>
        <path class="cls-11" d="M207.83,202.2c0,.4.38.73.84.73s.84-.33.84-.73-.38-.73-.84-.73-.84.33-.84.73Z"/>
        <path class="cls-11" d="M167.14,232.52c0,.4.37.73.84.73s.84-.33.84-.73-.37-.73-.84-.73-.84.33-.84.73Z"/>
        <path class="cls-11" d="M137.15,220.57c0,.4.38.73.84.73s.84-.33.84-.73-.37-.73-.84-.73-.84.33-.84.73Z"/>
        <path class="cls-11" d="M188.21,236.69c0,.4.38.73.84.73s.84-.33.84-.73-.38-.73-.84-.73-.84.33-.84.73Z"/>
        <path class="cls-11" d="M92.46,131.64c0,.4.37.73.84.73s.84-.33.84-.73-.37-.73-.84-.73-.84.33-.84.73Z"/>
        <path class="cls-11" d="M580.78,175.9c0,.4.37.73.84.73s.84-.33.84-.73-.38-.73-.84-.73-.84.33-.84.73Z"/>
        <path class="cls-11" d="M569.09,63.49c0,.4.38.73.84.73s.84-.33.84-.73-.38-.73-.84-.73-.84.33-.84.73Z"/>
        <path class="cls-11" d="M51.23,59.95c0,.4.38.73.84.73s.84-.33.84-.73-.38-.73-.84-.73-.84.33-.84.73Z"/>
        <path class="cls-11" d="M214.94,63.05c0,.4.38.73.84.73s.84-.33.84-.73-.38-.73-.84-.73-.84.33-.84.73Z"/>
        <path class="cls-11" d="M183.4,92.23c0,.4.38.73.84.73s.84-.33.84-.73-.38-.73-.84-.73-.84.33-.84.73Z"/>
        <path class="cls-11" d="M585.29,106.5c0,.4.37.73.84.73s.84-.33.84-.73-.37-.73-.84-.73-.84.33-.84.73Z"/>
        <path class="cls-11" d="M514.68,186.8c0,.4.37.73.84.73s.84-.33.84-.73-.37-.73-.84-.73-.84.33-.84.73Z"/>
        <path class="cls-11" d="M477.02,159.37c0,.4.37.73.84.73s.84-.33.84-.73-.38-.73-.84-.73-.84.33-.84.73Z"/>
        <path class="cls-11" d="M537.91,206.51c0,.4.38.73.84.73s.84-.33.84-.73-.38-.73-.84-.73-.84.33-.84.73Z"/>
        <path class="cls-11" d="M181.28,72.27c0,.4.38.73.84.73s.84-.33.84-.73-.38-.73-.84-.73-.84.33-.84.73Z"/>
        <path class="cls-11" d="M153.42,80.28c0,.4.37.73.84.73s.84-.33.84-.73-.38-.73-.84-.73-.84.33-.84.73Z"/>
        <path class="cls-11" d="M162.13,101.02c0,.4.37.73.84.73s.84-.33.84-.73-.37-.73-.84-.73-.84.33-.84.73Z"/>
        <path class="cls-11" d="M225.55,96.24c0,.4.38.73.84.73s.84-.33.84-.73-.38-.73-.84-.73-.84.33-.84.73Z"/>
        <path class="cls-11" d="M426.32,196.23c0,.4.38.73.84.73s.84-.33.84-.73-.37-.73-.84-.73-.84.33-.84.73Z"/>
        <path class="cls-11" d="M449.66,139.61c0,.4.38.73.84.73s.84-.33.84-.73-.38-.73-.84-.73-.84.33-.84.73Z"/>
        <path class="cls-11" d="M515.73,109.46c0,.4.37.73.84.73s.84-.33.84-.73-.37-.73-.84-.73-.84.33-.84.73Z"/>
        <path class="cls-11" d="M263.7,240.07c0,.4.37.73.84.73s.84-.33.84-.73-.38-.73-.84-.73-.84.33-.84.73Z"/>
        <path class="cls-11" d="M116.4,249.05c0,.4.38.73.84.73s.84-.33.84-.73-.37-.73-.84-.73-.84.33-.84.73Z"/>
        <path class="cls-11" d="M90.66,267.44c0,.4.37.73.84.73s.84-.33.84-.73-.37-.73-.84-.73-.84.33-.84.73Z"/>
        <path class="cls-11" d="M296.8,251.77c0,.4.38.73.84.73s.84-.33.84-.73-.38-.73-.84-.73-.84.33-.84.73Z"/>
        <path class="cls-11" d="M275.35,205.08c0,.4.38.73.84.73s.84-.33.84-.73-.37-.73-.84-.73-.84.33-.84.73Z"/>
        <path class="cls-11" d="M345.99,183.39c0,.4.37.73.84.73s.84-.33.84-.73-.38-.73-.84-.73-.84.33-.84.73Z"/>
        <path class="cls-11" d="M102.59,217.97c0,.4.37.73.84.73s.84-.33.84-.73-.37-.73-.84-.73-.84.33-.84.73Z"/>
        <path class="cls-11" d="M200.91,167.58c0,.4.38.73.84.73s.84-.33.84-.73-.38-.73-.84-.73-.84.33-.84.73Z"/>
        <path class="cls-11" d="M97,103.35c0,.4.37.73.84.73s.84-.33.84-.73-.38-.73-.84-.73-.84.33-.84.73Z"/>
        <path class="cls-11" d="M180.38,131.2c0,.4.38.73.84.73s.84-.33.84-.73-.38-.73-.84-.73-.84.33-.84.73Z"/>
        <path class="cls-11" d="M108.66,68.36c0,.4.38.73.84.73s.84-.33.84-.73-.38-.73-.84-.73-.84.33-.84.73Z"/>
        <path class="cls-11" d="M52.4,142.85c0,.4.37.73.84.73s.84-.33.84-.73-.38-.73-.84-.73-.84.33-.84.73Z"/>
        <path class="cls-11" d="M118.64,159.45c0,.4.38.73.84.73s.84-.33.84-.73-.38-.73-.84-.73-.84.33-.84.73Z"/>
        <path class="cls-11" d="M161.97,188.25c0,.4.37.73.84.73s.84-.33.84-.73-.37-.73-.84-.73-.84.33-.84.73Z"/>
        <path class="cls-11" d="M161.62,155.13c0,.4.38.73.84.73s.84-.33.84-.73-.38-.73-.84-.73-.84.33-.84.73Z"/>
        <path class="cls-11" d="M295.8,119.56c0,.4.37.73.84.73s.84-.33.84-.73-.38-.73-.84-.73-.84.33-.84.73Z"/>
        <path class="cls-11" d="M240.35,149.74c0,.4.37.73.84.73s.84-.33.84-.73-.37-.73-.84-.73-.84.33-.84.73Z"/>
        <path class="cls-11" d="M467.45,197.73c0,.4.38.73.84.73s.84-.33.84-.73-.38-.73-.84-.73-.84.33-.84.73Z"/>
        <path class="cls-11" d="M546.32,247.18c0,.4.38.73.84.73s.84-.33.84-.73-.38-.73-.84-.73-.84.33-.84.73Z"/>
        <path class="cls-11" d="M394.67,226.62c0,.4.37.73.84.73s.84-.33.84-.73-.38-.73-.84-.73-.84.33-.84.73Z"/>
        <path class="cls-11" d="M425.53,272.2c0,.4.37.73.84.73s.84-.33.84-.73-.38-.73-.84-.73-.84.33-.84.73Z"/>
        <path class="cls-11" d="M133.26,254.22c0,.4.37.73.84.73s.84-.33.84-.73-.37-.73-.84-.73-.84.33-.84.73Z"/>
        <path class="cls-11" d="M50.07,174.02c0,.4.37.73.84.73s.84-.33.84-.73-.37-.73-.84-.73-.84.33-.84.73Z"/>
        <path class="cls-11" d="M497.09,140.05c0,.59.55,1.06,1.22,1.06s1.22-.48,1.22-1.06-.55-1.06-1.22-1.06-1.22.48-1.22,1.06Z"/>
        <path class="cls-11" d="M439.66,171.47c0,.59.55,1.06,1.22,1.06s1.22-.48,1.22-1.06-.55-1.06-1.22-1.06-1.22.48-1.22,1.06Z"/>
        <path class="cls-11" d="M154.05,225.46c0,.59.55,1.06,1.22,1.06s1.22-.48,1.22-1.06-.55-1.06-1.22-1.06-1.22.48-1.22,1.06Z"/>
        <path class="cls-11" d="M375.01,203.78c0,1.04.97,1.89,2.17,1.89s2.17-.85,2.17-1.89-.97-1.89-2.17-1.89-2.17.85-2.17,1.89Z"/>
        <path class="cls-11" d="M218.13,78.89c0,.46.43.83.95.83s.95-.37.95-.83-.42-.83-.95-.83-.95.37-.95.83Z"/>
        <path class="cls-11" d="M474.27,117.16c0,.46.43.83.95.83s.95-.37.95-.83-.43-.83-.95-.83-.95.37-.95.83Z"/>
        <path class="cls-11" d="M280.19,158.83c0,.46.43.83.95.83s.95-.37.95-.83-.42-.83-.95-.83-.95.37-.95.83Z"/>
        <path class="cls-11" d="M225.02,266.58c0,.46.42.83.95.83s.95-.37.95-.83-.42-.83-.95-.83-.95.37-.95.83Z"/>
        <path class="cls-11" d="M90.39,97.29c0,.46.43.83.95.83s.95-.37.95-.83-.42-.83-.95-.83-.95.37-.95.83Z"/>
        <path class="cls-11" d="M392.51,265.88c0,1.04.97,1.89,2.17,1.89s2.17-.85,2.17-1.89-.97-1.89-2.17-1.89-2.17.85-2.17,1.89Z"/>
        <path class="cls-11" d="M87.86,71.71c0,1.04.97,1.89,2.17,1.89s2.17-.85,2.17-1.89-.97-1.89-2.17-1.89-2.17.85-2.17,1.89Z"/>
        <path class="cls-11" d="M580,217.7c0,1.04.97,1.89,2.17,1.89s2.17-.85,2.17-1.89-.97-1.89-2.17-1.89-2.17.85-2.17,1.89Z"/>
        <path class="cls-11" d="M71,174.04c0,1.04.97,1.89,2.17,1.89s2.17-.85,2.17-1.89-.97-1.89-2.17-1.89-2.17.85-2.17,1.89Z"/>
        <path class="cls-11" d="M226.82,203.35c0,1.04.97,1.89,2.17,1.89s2.17-.85,2.17-1.89-.97-1.89-2.17-1.89-2.17.85-2.17,1.89Z"/>
        <path class="cls-11" d="M56.76,229.86c0,1.04.97,1.89,2.17,1.89s2.17-.85,2.17-1.89-.97-1.89-2.17-1.89-2.17.85-2.17,1.89Z"/>
        <path class="cls-11" d="M344.69,170.14c0,1.04.97,1.89,2.17,1.89s2.17-.85,2.17-1.89-.97-1.89-2.17-1.89-2.17.84-2.17,1.89Z"/>
        <g>
          <path class="cls-11" d="M319.3,84.4c-1.21-.14-2.3-1.12-2.41-2.43-.08-1.01-.76-5.49-.76-5.49,0,0-.58,4.49-.76,5.49-.27,1.49-1.15,2.25-2.41,2.43-1,.14-5.46.76-5.46.76,0,0,4.45.63,5.46.76,1.6.22,2.25,1.24,2.41,2.43.13,1.01.76,5.49.76,5.49,0,0,.66-4.48.76-5.49.14-1.36,1.13-2.28,2.41-2.43,1.01-.11,5.46-.76,5.46-.76,0,0-4.45-.65-5.46-.76Z"/>
          <path class="cls-11" d="M586.9,172.51c-.95-.11-1.81-.88-1.89-1.9-.06-.8-.59-4.31-.59-4.31,0,0-.45,3.52-.6,4.31-.21,1.17-.9,1.77-1.89,1.9-.79.11-4.28.6-4.28.6,0,0,3.5.49,4.28.6,1.26.17,1.77.98,1.89,1.9.11.79.6,4.31.6,4.31,0,0,.52-3.51.6-4.31.11-1.07.88-1.79,1.89-1.9.79-.09,4.28-.6,4.28-.6,0,0-3.5-.51-4.28-.6Z"/>
          <path class="cls-11" d="M175.03,150.03c-.83-.1-1.58-.77-1.65-1.66-.06-.7-.52-3.77-.52-3.77,0,0-.4,3.08-.52,3.77-.18,1.02-.79,1.54-1.65,1.66-.69.09-3.74.52-3.74.52,0,0,3.06.43,3.74.52,1.1.15,1.54.85,1.65,1.66.09.69.52,3.77.52,3.77,0,0,.45-3.07.52-3.77.1-.93.77-1.57,1.65-1.66.69-.08,3.74-.52,3.74-.52,0,0-3.05-.44-3.74-.52Z"/>
          <path class="cls-11" d="M78.31,148.1c-1.05-.12-2-.97-2.09-2.11-.07-.88-.66-4.77-.66-4.77,0,0-.5,3.9-.66,4.77-.23,1.29-1,1.95-2.09,2.11-.87.12-4.74.66-4.74.66,0,0,3.87.55,4.74.66,1.39.19,1.95,1.08,2.09,2.11.12.88.66,4.77.66,4.77,0,0,.57-3.89.66-4.77.12-1.18.98-1.98,2.09-2.11.87-.1,4.74-.66,4.74-.66,0,0-3.87-.56-4.74-.66Z"/>
          <path class="cls-11" d="M373.93,78.36c-.96-.11-1.84-.89-1.92-1.93-.06-.81-.6-4.37-.6-4.37,0,0-.46,3.58-.6,4.37-.21,1.19-.91,1.79-1.92,1.93-.8.11-4.35.61-4.35.61,0,0,3.55.5,4.35.61,1.28.17,1.79.99,1.92,1.93.11.8.6,4.38.6,4.38,0,0,.52-3.57.61-4.38.11-1.08.9-1.82,1.92-1.93.8-.09,4.35-.61,4.35-.6,0,0-3.55-.52-4.35-.61Z"/>
          <path class="cls-11" d="M468.99,94.21c-.91-.11-1.73-.84-1.81-1.82-.06-.76-.57-4.12-.57-4.12,0,0-.43,3.37-.57,4.12-.2,1.12-.86,1.69-1.8,1.82-.75.1-4.1.57-4.1.57,0,0,3.34.47,4.1.57,1.2.16,1.69.93,1.8,1.82.1.76.57,4.12.57,4.12,0,0,.49-3.36.57-4.12.1-1.02.84-1.71,1.8-1.82.76-.08,4.09-.57,4.09-.57,0,0-3.34-.48-4.09-.57Z"/>
          <path class="cls-11" d="M472.44,140.08c-.62-.07-1.18-.57-1.23-1.24-.04-.52-.39-2.82-.39-2.82,0,0-.3,2.3-.39,2.82-.14.76-.59,1.15-1.23,1.24-.51.07-2.8.39-2.8.39,0,0,2.28.32,2.8.39.82.11,1.15.64,1.23,1.24.07.52.39,2.82.39,2.82,0,0,.34-2.3.39-2.82.07-.7.58-1.17,1.23-1.25.52-.06,2.8-.39,2.8-.39,0,0-2.28-.33-2.8-.39Z"/>
          <path class="cls-11" d="M242.03,65.89c-.94-.11-1.79-.87-1.87-1.88-.06-.79-.59-4.26-.59-4.26,0,0-.45,3.48-.59,4.26-.21,1.16-.89,1.74-1.87,1.88-.78.11-4.23.59-4.23.59,0,0,3.45.49,4.23.59,1.24.16,1.75.96,1.87,1.88.1.78.59,4.26.59,4.26,0,0,.51-3.47.59-4.26.11-1.05.87-1.77,1.87-1.88.78-.09,4.24-.59,4.24-.59,0,0-3.45-.5-4.24-.59Z"/>
        </g>
      </g>
    </g>
    <path class="cls-11" d="M552.84.07c-31.42,0-30.49,30.88-.94,22.68-21.57,23.58-4.22,48.7,22.51,26.66-7.04,13.84,8.44,13.84,9.85,9.74-8.44,31.78,44.57,45.11,54.41,8.2V.07h-85.83Z"/>
    <path class="cls-11" d="M-1.33,85.72c8.09-5.26,15.14-15.09,17.29-21.95,3.79,7.62,18.67,6.74,16.23-6.45,26.24,19.35,48.43-17.89,47.08-26.68,8.93,6.16,17.32-6.45,5.95-11.14,8.45-7.85,2.47-14.91-9.54-19.42H-1.33v85.65Z"/>
    <g>
      <g>
        <path class="cls-2" d="M359.03,231.73c42.4,14.11,66.09,39.29,73.6,57.24-3.61-.67-7.43-1.39-11.47-2.14-27.62-37.36-43.52-47.83-99.32-57.74,12.44.3,24.96,1.26,37.19,2.63Z"/>
        <path class="cls-4" d="M359.03,231.73c6.84.76,13.58,1.65,20.17,2.62,47.8,20.79,62.49,46.16,66.78,57.12-4.08-.77-8.52-1.6-13.35-2.5-7.52-17.95-31.21-43.13-73.6-57.24Z"/>
        <path class="cls-20" d="M397.32,237.26c43.72,16.52,57.24,45.43,60.96,56.55-3.65-.7-7.75-1.47-12.3-2.33-4.29-10.96-18.98-36.33-66.78-57.12,6.2.91,12.26,1.89,18.12,2.91Z"/>
        <path class="cls-27" d="M422.2,241.88c33.24,13.41,45.72,46.22,48.34,54.27-3.33-.64-7.41-1.42-12.26-2.35-3.72-11.12-17.24-40.02-60.96-56.55,8.8,1.52,17.16,3.11,24.88,4.63Z"/>
        <path class="cls-17" d="M447.16,246.88c23.56,6.42,35.1,51.55,35.1,51.55,0,0-3.73-.75-11.72-2.29-2.61-8.05-15.09-40.86-48.34-54.27,9.35,1.84,17.78,3.59,24.95,5Z"/>
      </g>
      <path class="cls-15" d="M468.15,267.09c8.9,14.23,13.26,31.39,13.3,31.56.1.38.44.64.81.64.07,0,.14,0,.21-.03.45-.12.72-.58.61-1.03-.04-.17-4.46-17.59-13.51-32.05,0,0-.7-.96-1.39-.37-.54.46-.02,1.28-.02,1.28Z"/>
    </g>
    <g>
      <g>
        <path class="cls-26" d="M-.33,281.78s38.85-9.18,125,28.16H-.33v-28.16Z"/>
        <path class="cls-21" d="M639.67,277.7s-47.25,5.79-135.08,38.85h135.08v-38.85Z"/>
      </g>
      <g>
        <path class="cls-18" d="M441.38,285.19c-.22-.12-.34-.17-.34-.17.11.05.23.11.34.17Z"/>
        <path class="cls-18" d="M411.92,344.52c.08-.08.15-.18.23-.25,0,0-.09.08-.23.25Z"/>
        <path class="cls-18" d="M409.85,325.6c-.27-.06-.43-.05-.43-.05.15,0,.28.04.43.05Z"/>
        <path class="cls-18" d="M233.32,317.14c.17-.01.34-.06.51-.06,0,0-.19,0-.51.06Z"/>
        <path class="cls-18" d="M230.83,339.79c-.17-.2-.27-.3-.27-.3.1.09.18.2.27.3Z"/>
        <g>
          <g>
            <path class="cls-14" d="M639.38,295.82c-127.7-18.39-450.53-20.43-639.66,0v64.17h639.89s-.24-63.72-.24-64.17Z"/>
            <path class="cls-1" d="M639.67,299.74c-163.49-17.37-477.12-5.84-563.65-2.95-89.05,2.97-67.97,9.06,77.37,1.95,183.25-8.98,254.82-9.49,463.08,5.16,31.53,2.22,44.55,18.39-396.16,4.69-196.3-6.1-105.29,39.42-15.17,33.78,83.53-5.22,33.91-29.09,200.11-19.07,50.86,3.07,160.5,12.83,135.74,16.99-30.77,5.17-160.49,3.4-88.49,11.89,37.41,4.41,134.03-2.58,186.94-6.54,0-10.88.24-41.48.24-45.9Z"/>
          </g>
          <g>
            <path class="cls-25" d="M302.23,304.81c0-.52-1.31-.88-2.9-.82-1.61.08-2.88.55-2.88,1.07,0,.51,1.3.88,2.9.81,1.6-.07,2.89-.55,2.88-1.06Z"/>
            <path class="cls-25" d="M328.04,301.16c-.01-.22-.72-.36-1.57-.33-.87.04-1.55.25-1.56.47,0,.22.7.36,1.57.33.86-.04,1.55-.24,1.56-.46Z"/>
            <path class="cls-25" d="M275.77,301.28c0-.22-.7-.37-1.56-.33-.86.04-1.56.25-1.55.47,0,.23.7.37,1.56.32.87-.03,1.56-.24,1.55-.46Z"/>
            <path class="cls-25" d="M365.45,303.21c0-.39-.97-.67-2.16-.61-1.19.05-2.14.4-2.14.8,0,.39.97.66,2.16.61,1.18-.05,2.14-.41,2.14-.8Z"/>
            <path class="cls-25" d="M343.93,299.17c0-.4-1.01-.69-2.24-.64-1.22.06-2.21.43-2.21.83,0,.4,1.01.68,2.23.63,1.22-.05,2.21-.42,2.21-.82Z"/>
            <path class="cls-25" d="M315.96,303.12c0-.46-1.31-.77-2.93-.7-1.6.07-2.9.5-2.9.96.01.45,1.32.77,2.93.69,1.62-.07,2.92-.49,2.91-.95Z"/>
            <path class="cls-25" d="M294.29,303.16c0-.35-.97-.6-2.16-.55-1.18.06-2.14.39-2.13.75,0,.36.97.6,2.15.55,1.19-.06,2.14-.38,2.14-.75Z"/>
            <path class="cls-25" d="M289.65,307.15c0-.37-.96-.61-2.15-.55-1.19.04-2.15.38-2.13.73,0,.36.96.61,2.15.56,1.19-.05,2.14-.38,2.13-.74Z"/>
            <path class="cls-25" d="M337.21,302.76c0-.41-.97-.7-2.15-.65-1.19.06-2.14.43-2.14.84,0,.41.97.71,2.15.66,1.18-.05,2.15-.43,2.13-.84Z"/>
            <path class="cls-25" d="M261.24,306.59c0-.41-.97-.7-2.15-.65-1.19.05-2.14.43-2.13.84,0,.41.97.7,2.15.65,1.19-.05,2.15-.43,2.13-.84Z"/>
            <path class="cls-25" d="M278.68,306.89c0-.41-.97-.7-2.16-.65-1.17.06-2.14.43-2.13.84,0,.41.97.7,2.16.65,1.18-.05,2.14-.43,2.13-.84Z"/>
            <path class="cls-25" d="M349.19,302.72c0-.35-.97-.6-2.16-.54-1.18.05-2.13.37-2.13.74,0,.34.96.59,2.15.53,1.2-.05,2.13-.38,2.14-.73Z"/>
            <path class="cls-25" d="M317.86,298.63c0-.31-.97-.51-2.15-.46-1.19.05-2.14.34-2.14.65.01.3.97.51,2.16.46,1.18-.05,2.13-.35,2.13-.65Z"/>
            <path class="cls-25" d="M308.36,299.94c0-.27-.7-.45-1.56-.41-.86.04-1.56.29-1.55.56,0,.27.7.46,1.57.42.87-.04,1.56-.29,1.55-.56Z"/>
            <path class="cls-25" d="M285.37,301.51c0-.27-.7-.46-1.57-.42-.86.04-1.55.29-1.55.56s.7.46,1.57.42c.86-.04,1.55-.29,1.54-.56Z"/>
            <path class="cls-25" d="M260.82,303.51c0-.27-.69-.46-1.56-.42-.86.04-1.55.29-1.55.56,0,.27.69.46,1.57.42.86-.04,1.55-.29,1.54-.56Z"/>
            <path class="cls-25" d="M240.99,305.5c0-.27-.7-.46-1.56-.42-.87.04-1.56.29-1.56.56,0,.27.71.46,1.57.42.86-.03,1.55-.29,1.55-.56Z"/>
            <path class="cls-25" d="M300.23,299.09c0-.3-.77-.5-1.7-.46-.94.04-1.69.31-1.69.6.01.29.77.49,1.7.45.93-.03,1.68-.31,1.68-.59Z"/>
            <path class="cls-25" d="M304.42,308.88c0-.46-1.46-.77-3.26-.69-1.78.08-3.22.52-3.22.98,0,.45,1.46.77,3.24.69,1.8-.08,3.23-.52,3.23-.98Z"/>
            <path class="cls-25" d="M325.83,305.75c0-.42-1.14-.71-2.54-.64-1.39.06-2.51.45-2.5.87,0,.42,1.14.7,2.53.64,1.39-.06,2.51-.45,2.51-.86Z"/>
            <path class="cls-25" d="M276.15,304.16c0-.42-1.13-.71-2.52-.65-1.39.06-2.52.45-2.52.87,0,.42,1.14.7,2.52.65,1.4-.07,2.52-.45,2.51-.87Z"/>
          </g>
          <g>
            <path class="cls-25" d="M458.27,307.97c.05-.52-1.21-.99-2.8-1.04-1.61-.05-2.93.31-2.98.83-.05.51,1.2.97,2.8,1.03,1.6.06,2.94-.31,2.98-.82Z"/>
            <path class="cls-25" d="M484.37,306.39c.01-.22-.68-.42-1.52-.45-.87-.03-1.57.12-1.61.34-.02.22.66.42,1.53.45.86.03,1.57-.12,1.6-.34Z"/>
            <path class="cls-25" d="M432.31,302.33c.02-.22-.66-.43-1.51-.45-.86-.03-1.58.12-1.6.34-.03.22.65.42,1.51.45.87.04,1.58-.11,1.6-.33Z"/>
            <path class="cls-25" d="M521.4,311.42c.04-.39-.89-.74-2.08-.78-1.18-.04-2.17.23-2.21.63-.04.39.9.74,2.08.78,1.18.04,2.18-.24,2.22-.63Z"/>
            <path class="cls-25" d="M500.4,305.68c.04-.4-.93-.77-2.16-.81-1.22-.04-2.25.25-2.29.65-.04.4.93.76,2.15.81,1.22.04,2.25-.24,2.29-.65Z"/>
            <path class="cls-25" d="M472.12,307.38c.05-.46-1.22-.87-2.84-.93-1.6-.06-2.94.27-2.99.72-.04.45,1.23.87,2.84.92,1.61.06,2.96-.26,3-.71Z"/>
            <path class="cls-25" d="M450.55,305.69c.03-.35-.9-.67-2.09-.72-1.18-.04-2.17.21-2.2.57-.03.36.9.68,2.08.72,1.19.04,2.17-.21,2.22-.57Z"/>
            <path class="cls-25" d="M445.49,309.29c.04-.36-.9-.69-2.08-.73-1.19-.05-2.18.21-2.2.57-.04.36.89.69,2.08.73,1.19.04,2.17-.22,2.21-.57Z"/>
            <path class="cls-25" d="M493.32,308.72c.04-.4-.89-.77-2.07-.82-1.19-.04-2.18.26-2.22.67-.04.41.89.78,2.07.82,1.18.04,2.19-.26,2.21-.67Z"/>
            <path class="cls-25" d="M417.26,306.46c.05-.41-.88-.77-2.07-.81-1.19-.05-2.18.25-2.21.66-.04.41.89.78,2.07.82,1.19.04,2.18-.25,2.21-.67Z"/>
            <path class="cls-25" d="M434.6,308.15c.04-.41-.89-.77-2.08-.82-1.18-.04-2.17.25-2.21.66-.04.41.88.78,2.08.82,1.18.04,2.18-.25,2.21-.67Z"/>
            <path class="cls-25" d="M505.25,309.64c.03-.35-.9-.67-2.09-.71-1.18-.04-2.16.2-2.2.56-.03.35.9.66,2.09.71,1.2.04,2.17-.21,2.21-.56Z"/>
            <path class="cls-25" d="M474.51,303.06c.03-.31-.91-.59-2.09-.63-1.19-.04-2.17.17-2.21.48-.02.3.91.58,2.1.63,1.19.04,2.16-.17,2.2-.48Z"/>
            <path class="cls-25" d="M464.91,303.6c.02-.27-.65-.51-1.51-.54-.86-.03-1.58.16-1.61.43-.02.27.65.51,1.52.55.87.03,1.58-.16,1.61-.44Z"/>
            <path class="cls-25" d="M441.84,303.33c.03-.27-.65-.51-1.51-.54-.86-.03-1.58.16-1.61.44-.03.27.65.51,1.52.54.86.03,1.57-.17,1.6-.44Z"/>
            <path class="cls-25" d="M417.18,303.36c.03-.27-.64-.51-1.5-.54-.86-.03-1.58.16-1.61.43-.02.26.64.51,1.51.54.86.03,1.57-.17,1.6-.44Z"/>
            <path class="cls-25" d="M397.23,303.76c.04-.27-.64-.51-1.51-.54-.87-.03-1.58.16-1.61.43-.02.27.66.51,1.52.54.86.03,1.58-.16,1.6-.43Z"/>
            <path class="cls-25" d="M456.9,302.11c.02-.29-.71-.56-1.64-.59-.93-.03-1.71.18-1.74.46-.02.29.71.55,1.64.58.93.04,1.71-.17,1.74-.46Z"/>
            <path class="cls-25" d="M460.01,312.19c.04-.46-1.37-.88-3.17-.95-1.78-.06-3.26.26-3.31.72-.04.45,1.37.88,3.16.95,1.8.06,3.27-.26,3.32-.72Z"/>
            <path class="cls-25" d="M481.67,310.79c.05-.42-1.06-.8-2.45-.84-1.39-.05-2.55.24-2.59.66-.04.41,1.06.8,2.45.85,1.39.05,2.55-.25,2.59-.66Z"/>
            <path class="cls-25" d="M432.37,305.24c.06-.42-1.05-.8-2.44-.85-1.39-.05-2.55.25-2.6.66-.04.41,1.06.79,2.44.85,1.4.05,2.56-.25,2.59-.66Z"/>
          </g>
          <g>
            <path class="cls-25" d="M152.12,330.22c-.02-.79-2.02-1.42-4.45-1.42-2.45.02-4.39.66-4.37,1.45.02.78,2.01,1.41,4.44,1.4,2.44-.01,4.4-.65,4.37-1.43Z"/>
            <path class="cls-25" d="M191.44,326.26c-.02-.34-1.11-.59-2.4-.59-1.32.01-2.36.28-2.37.61.02.33,1.08.6,2.4.59,1.31,0,2.37-.28,2.37-.61Z"/>
            <path class="cls-25" d="M111.63,323.24c-.02-.34-1.08-.61-2.39-.6-1.31,0-2.37.28-2.36.62,0,.34,1.08.6,2.38.58,1.33,0,2.38-.26,2.37-.6Z"/>
            <path class="cls-25" d="M248.61,331.65c-.01-.59-1.5-1.07-3.31-1.06-1.81,0-3.25.48-3.24,1.09.02.59,1.51,1.07,3.31,1.06,1.79,0,3.26-.49,3.24-1.09Z"/>
            <path class="cls-25" d="M215.63,324.2c-.02-.61-1.56-1.11-3.43-1.1-1.86.01-3.36.51-3.34,1.12.02.61,1.55,1.09,3.42,1.09,1.86,0,3.36-.51,3.35-1.12Z"/>
            <path class="cls-25" d="M173.04,328.5c-.02-.7-2.02-1.25-4.49-1.24-2.44,0-4.42.58-4.4,1.28.03.69,2.04,1.25,4.49,1.23,2.47,0,4.44-.57,4.41-1.26Z"/>
            <path class="cls-25" d="M139.97,327.23c-.02-.53-1.5-.97-3.32-.97-1.8.02-3.26.46-3.23,1,.02.55,1.5.97,3.29.97,1.82-.02,3.26-.45,3.26-1Z"/>
            <path class="cls-25" d="M132.98,333.01c0-.56-1.49-.99-3.29-.98-1.81,0-3.26.45-3.23.99,0,.55,1.49.99,3.29.98,1.81,0,3.26-.45,3.24-.99Z"/>
            <path class="cls-25" d="M205.48,329.24c-.02-.62-1.5-1.12-3.3-1.12-1.81.01-3.26.53-3.24,1.15.02.63,1.5,1.14,3.31,1.13,1.8,0,3.27-.53,3.23-1.15Z"/>
            <path class="cls-25" d="M89.59,330.42c0-.63-1.49-1.12-3.3-1.11-1.81,0-3.26.51-3.23,1.14.02.62,1.5,1.12,3.3,1.12,1.81,0,3.26-.52,3.23-1.14Z"/>
            <path class="cls-25" d="M116.23,331.93c-.02-.62-1.5-1.12-3.32-1.11-1.79.01-3.25.51-3.22,1.14.01.63,1.49,1.13,3.31,1.12,1.8,0,3.26-.52,3.23-1.15Z"/>
            <path class="cls-25" d="M223.76,329.91c-.02-.53-1.5-.96-3.31-.95-1.8.01-3.24.44-3.24.98.02.53,1.49.95,3.31.95,1.82,0,3.25-.45,3.24-.98Z"/>
            <path class="cls-25" d="M175.83,321.79c-.02-.48-1.5-.84-3.3-.83-1.81,0-3.26.39-3.26.85.03.46,1.5.83,3.32.83,1.8,0,3.25-.39,3.24-.85Z"/>
            <path class="cls-25" d="M161.36,323.2c-.01-.41-1.09-.73-2.4-.73-1.32,0-2.37.34-2.36.75.02.41,1.09.74,2.41.74,1.32,0,2.37-.35,2.35-.76Z"/>
            <path class="cls-25" d="M126.29,324.19c0-.42-1.08-.74-2.4-.73-1.31,0-2.36.33-2.35.75.01.4,1.08.74,2.42.73,1.31,0,2.36-.34,2.34-.75Z"/>
            <path class="cls-25" d="M88.87,325.72c-.01-.41-1.07-.74-2.39-.73-1.32,0-2.37.34-2.35.76.01.39,1.07.73,2.4.73,1.31,0,2.36-.34,2.34-.75Z"/>
            <path class="cls-25" d="M58.65,327.53c0-.42-1.07-.74-2.4-.74-1.32,0-2.37.34-2.36.75.02.41,1.1.74,2.41.73,1.31,0,2.36-.34,2.35-.75Z"/>
            <path class="cls-25" d="M148.91,321.41c-.02-.45-1.19-.8-2.6-.79-1.42,0-2.57.37-2.56.81.02.44,1.18.8,2.61.79,1.41,0,2.56-.36,2.55-.8Z"/>
            <path class="cls-25" d="M155.58,336.52c-.02-.7-2.26-1.26-4.99-1.25-2.71.01-4.9.59-4.89,1.29.03.69,2.26,1.26,4.97,1.25,2.75-.01,4.92-.59,4.91-1.29Z"/>
            <path class="cls-25" d="M188.18,333.09c-.01-.64-1.76-1.15-3.89-1.13-2.11,0-3.82.53-3.79,1.16.02.63,1.76,1.14,3.88,1.14,2.12,0,3.83-.53,3.8-1.16Z"/>
            <path class="cls-25" d="M112.29,327.64c0-.64-1.75-1.15-3.86-1.14-2.12,0-3.83.54-3.81,1.17.02.63,1.76,1.14,3.87,1.14,2.13-.02,3.83-.53,3.81-1.16Z"/>
          </g>
          <g>
            <path class="cls-25" d="M296.29,346.25c-.01-.58-1.48-1.04-3.25-1.03-1.79.02-3.21.48-3.2,1.05.02.57,1.47,1.03,3.25,1.03,1.79,0,3.22-.48,3.2-1.05Z"/>
            <path class="cls-25" d="M325.06,343.35c-.02-.25-.81-.43-1.76-.43-.97,0-1.73.2-1.74.45.01.24.79.43,1.76.43.96,0,1.73-.2,1.73-.44Z"/>
            <path class="cls-25" d="M266.66,341.14c-.01-.24-.79-.44-1.75-.44-.96,0-1.73.21-1.72.45,0,.25.79.44,1.74.43.97,0,1.74-.2,1.73-.44Z"/>
            <path class="cls-25" d="M366.9,347.3c-.01-.44-1.1-.79-2.43-.77-1.32,0-2.38.35-2.37.79.02.43,1.1.78,2.42.78,1.31,0,2.39-.36,2.37-.8Z"/>
            <path class="cls-25" d="M342.77,341.85c-.02-.45-1.14-.81-2.51-.81-1.36.01-2.46.38-2.45.82.02.45,1.14.8,2.5.8,1.36,0,2.46-.37,2.45-.82Z"/>
            <path class="cls-25" d="M311.6,344.99c-.01-.52-1.48-.91-3.29-.91-1.79,0-3.23.43-3.22.93.02.5,1.49.91,3.28.9,1.81,0,3.25-.42,3.23-.92Z"/>
            <path class="cls-25" d="M287.4,344.07c-.02-.39-1.1-.71-2.43-.71-1.32.02-2.38.34-2.37.73.02.4,1.1.71,2.41.71,1.33-.01,2.39-.33,2.38-.73Z"/>
            <path class="cls-25" d="M282.29,348.29c0-.41-1.09-.72-2.41-.71-1.33,0-2.39.33-2.37.72,0,.4,1.09.72,2.41.72,1.33,0,2.38-.33,2.37-.73Z"/>
            <path class="cls-25" d="M335.34,345.53c-.01-.45-1.09-.82-2.41-.82-1.32,0-2.38.38-2.37.84.01.46,1.1.83,2.42.82,1.32,0,2.39-.39,2.36-.84Z"/>
            <path class="cls-25" d="M250.53,346.4c0-.46-1.09-.82-2.42-.81-1.32,0-2.39.37-2.36.83.01.46,1.1.82,2.41.82,1.33,0,2.39-.38,2.37-.84Z"/>
            <path class="cls-25" d="M270.02,347.5c-.01-.45-1.1-.82-2.43-.81-1.31,0-2.38.38-2.36.83.01.46,1.09.83,2.42.82,1.32,0,2.39-.38,2.36-.84Z"/>
            <path class="cls-25" d="M348.72,346.03c-.02-.39-1.1-.7-2.42-.7-1.32,0-2.37.32-2.37.72.02.39,1.09.7,2.42.69,1.33,0,2.38-.33,2.37-.72Z"/>
            <path class="cls-25" d="M313.64,340.08c-.01-.34-1.1-.61-2.42-.61-1.33,0-2.39.29-2.38.63.02.34,1.1.61,2.43.61,1.32,0,2.38-.29,2.37-.63Z"/>
            <path class="cls-25" d="M303.05,341.11c-.01-.3-.8-.54-1.76-.53-.96,0-1.74.25-1.73.55.02.3.8.54,1.76.54.97,0,1.73-.25,1.72-.56Z"/>
            <path class="cls-25" d="M277.39,341.84c0-.3-.79-.54-1.76-.54-.96,0-1.73.25-1.72.55,0,.3.79.54,1.77.54.96,0,1.72-.25,1.71-.55Z"/>
            <path class="cls-25" d="M250.01,342.96c0-.3-.79-.54-1.75-.54-.96,0-1.73.25-1.72.55,0,.29.78.54,1.76.53.96,0,1.73-.25,1.72-.55Z"/>
            <path class="cls-25" d="M227.89,344.28c0-.3-.78-.54-1.75-.54-.97,0-1.74.25-1.73.55.01.3.8.54,1.76.54.96,0,1.73-.25,1.72-.55Z"/>
            <path class="cls-25" d="M293.94,339.8c-.02-.33-.87-.59-1.9-.58-1.04,0-1.88.27-1.87.59.02.32.86.58,1.9.57,1.04,0,1.88-.26,1.87-.59Z"/>
            <path class="cls-25" d="M298.82,350.86c-.02-.51-1.65-.92-3.65-.91-1.98,0-3.59.43-3.58.95.02.5,1.65.92,3.64.92,2.01,0,3.6-.43,3.59-.95Z"/>
            <path class="cls-25" d="M322.68,348.35c-.01-.46-1.29-.84-2.85-.83-1.55,0-2.79.39-2.78.85.01.46,1.29.84,2.84.83,1.55,0,2.8-.39,2.79-.85Z"/>
            <path class="cls-25" d="M267.14,344.37c0-.47-1.28-.84-2.83-.84-1.55,0-2.8.39-2.79.85.02.46,1.29.83,2.83.84,1.56-.01,2.81-.39,2.79-.85Z"/>
          </g>
          <g>
            <path class="cls-25" d="M494.01,343.29c-.02-.82-2.1-1.48-4.62-1.47-2.55.02-4.56.68-4.54,1.5.02.81,2.09,1.47,4.62,1.46,2.53,0,4.58-.68,4.54-1.48Z"/>
            <path class="cls-25" d="M534.9,339.17c-.03-.35-1.15-.62-2.5-.62-1.37.01-2.46.29-2.47.64.02.34,1.13.62,2.5.61,1.36,0,2.46-.29,2.46-.63Z"/>
            <path class="cls-25" d="M451.91,336.03c-.02-.35-1.13-.64-2.48-.62-1.37,0-2.46.29-2.45.64,0,.35,1.12.62,2.48.61,1.38,0,2.47-.27,2.46-.62Z"/>
            <path class="cls-25" d="M594.35,344.78c-.02-.62-1.56-1.12-3.44-1.1-1.88,0-3.38.5-3.37,1.13.02.61,1.57,1.11,3.44,1.1,1.87,0,3.39-.51,3.37-1.13Z"/>
            <path class="cls-25" d="M560.05,337.03c-.02-.64-1.62-1.15-3.56-1.15-1.94.02-3.5.53-3.48,1.17.02.63,1.61,1.14,3.56,1.14,1.94-.01,3.49-.53,3.48-1.17Z"/>
            <path class="cls-25" d="M515.76,341.5c-.02-.73-2.1-1.3-4.67-1.29-2.54,0-4.59.6-4.58,1.32.03.71,2.12,1.3,4.66,1.28,2.56,0,4.62-.59,4.59-1.31Z"/>
            <path class="cls-25" d="M481.38,340.19c-.02-.56-1.56-1.01-3.45-1.01-1.87.02-3.39.47-3.37,1.04.03.57,1.56,1.01,3.43,1.01,1.89-.02,3.39-.47,3.38-1.04Z"/>
            <path class="cls-25" d="M474.12,346.19c-.01-.58-1.55-1.03-3.43-1.02-1.89,0-3.39.47-3.36,1.03,0,.57,1.55,1.03,3.42,1.01,1.88,0,3.39-.47,3.37-1.03Z"/>
            <path class="cls-25" d="M549.5,342.27c-.02-.64-1.56-1.16-3.43-1.17-1.88.01-3.39.55-3.37,1.19.02.65,1.56,1.18,3.44,1.17,1.87,0,3.4-.54,3.36-1.19Z"/>
            <path class="cls-25" d="M428.99,343.5c0-.65-1.55-1.17-3.43-1.16-1.88,0-3.39.54-3.36,1.19.02.65,1.56,1.17,3.43,1.16,1.89,0,3.39-.54,3.36-1.19Z"/>
            <path class="cls-25" d="M456.69,345.07c-.02-.64-1.57-1.16-3.45-1.16-1.86.02-3.37.54-3.35,1.18.02.65,1.55,1.18,3.44,1.17,1.87-.01,3.39-.54,3.36-1.19Z"/>
            <path class="cls-25" d="M568.51,342.98c-.02-.56-1.56-1.01-3.44-.99-1.87.01-3.37.46-3.37,1.02.02.55,1.55.99,3.44.99,1.9,0,3.38-.46,3.37-1.02Z"/>
            <path class="cls-25" d="M518.66,334.52c-.02-.49-1.56-.87-3.43-.87-1.89.01-3.39.41-3.39.89.03.48,1.56.86,3.45.86,1.88-.01,3.37-.41,3.37-.89Z"/>
            <path class="cls-25" d="M503.62,335.99c-.01-.42-1.13-.76-2.49-.75-1.37,0-2.47.36-2.45.78.02.43,1.13.77,2.5.77,1.37,0,2.46-.36,2.44-.79Z"/>
            <path class="cls-25" d="M467.16,337.02c0-.43-1.13-.77-2.5-.76-1.37,0-2.46.35-2.45.79.01.42,1.13.77,2.51.76,1.36,0,2.45-.36,2.44-.78Z"/>
            <path class="cls-25" d="M428.25,338.61c-.01-.43-1.12-.77-2.48-.76-1.37,0-2.46.35-2.45.79.01.41,1.11.76,2.5.76,1.36,0,2.45-.36,2.44-.79Z"/>
            <path class="cls-25" d="M396.82,340.5c0-.43-1.12-.77-2.49-.77-1.37,0-2.47.35-2.46.78.02.43,1.14.76,2.51.76,1.36,0,2.45-.36,2.45-.78Z"/>
            <path class="cls-25" d="M490.68,334.13c-.02-.46-1.24-.83-2.71-.83-1.48,0-2.67.38-2.66.84.02.45,1.23.83,2.71.81,1.47,0,2.66-.38,2.66-.83Z"/>
            <path class="cls-25" d="M497.61,349.84c-.02-.72-2.34-1.31-5.19-1.3-2.82,0-5.1.61-5.08,1.34.03.71,2.35,1.3,5.17,1.3,2.85-.01,5.11-.62,5.1-1.35Z"/>
            <path class="cls-25" d="M531.51,346.28c-.01-.66-1.83-1.19-4.04-1.18-2.2,0-3.97.55-3.95,1.2.02.66,1.83,1.19,4.04,1.18,2.21,0,3.98-.55,3.95-1.2Z"/>
            <path class="cls-25" d="M452.59,340.61c0-.67-1.81-1.19-4.02-1.19-2.21,0-3.98.56-3.97,1.21.03.66,1.83,1.19,4.03,1.19,2.21-.02,3.99-.56,3.95-1.21Z"/>
          </g>
        </g>
      </g>
    </g>
    <path class="cls-19" d="M172.95,285.24c-9.8,0-21.84,1.17-21.84,6.18,0,4.43,12.47,2.63,21.36,2.63,8.04,0,22.05,2.58,22.05-2.53,0-4.14-11.99-6.28-21.58-6.28Z"/>
    <path class="cls-19" d="M85.81,325.92c-10.84,0-24.16,1.18-24.16,6.22,0,4.46,13.79,2.64,23.63,2.64,8.9,0,24.4,2.6,24.4-2.55,0-4.16-13.26-6.32-23.87-6.32Z"/>
    <g>
      <g>
        <path class="cls-17" d="M423.87,241.72c9.89,1.93,18.16,3.75,23.56,5.2-45.4,6.21-96,113.15-96,113.15h-44.47c34.8-56.16,75.82-106.82,116.91-118.35Z"/>
        <path class="cls-2" d="M177.58,360.07h-38.94c40.17-64.09,108.02-118.78,178.75-130.97,7.21-.43,17.26.05,28.67,1.09-51.69,8.86-121.83,61.2-168.49,129.88Z"/>
        <path class="cls-4" d="M346.06,230.19c7.93.73,16.52,1.73,25.27,2.91-49.09,8.71-106.84,65.65-151.87,126.97h-41.89c46.65-68.68,116.79-121.02,168.49-129.88Z"/>
        <path class="cls-20" d="M371.33,233.09c8.61,1.16,17.37,2.48,25.82,3.86-44.86,10.9-96.08,63.62-133.33,123.11h-44.35c45.03-61.32,102.77-118.26,151.86-126.97Z"/>
        <path class="cls-27" d="M397.15,236.95c9.53,1.56,18.66,3.2,26.72,4.77-41.09,11.52-82.11,62.19-116.91,118.35h-43.13c37.25-59.5,88.47-112.21,133.33-123.11Z"/>
      </g>
      <path class="cls-15" d="M469.56,266.18c-2.63-4.2-12.06-18.02-23.08-19.48,0,0-.02,0-.03,0,0,0-.02,0-.03,0-5.98-.38-13.77,3.18-23.14,10.58-7.91,6.25-16.68,15.13-24.7,25.01-24.03,29.6-44.07,69.69-48.01,77.78h1.87c4.67-9.51,24.19-48.06,47.44-76.7,7.94-9.78,16.62-18.57,24.43-24.74,8.9-7.03,16.49-10.56,21.98-10.23,8.17,1.1,16.64,10.37,21.85,18.7,1.18,1.99,2.54.88,1.41-.91Z"/>
    </g>
    <g>
      <polygon class="cls-22" points="413.96 157.63 411.33 153.42 406.42 153.24 409.55 149.4 408.21 144.61 412.78 146.44 416.86 143.67 416.55 148.64 420.41 151.72 415.65 152.95 413.96 157.63"/>
      <polygon class="cls-22" points="24.11 159.05 22.44 156.39 19.34 156.28 21.32 153.85 20.47 150.83 23.36 151.99 25.94 150.23 25.74 153.37 28.18 155.32 25.17 156.1 24.11 159.05"/>
      <polygon class="cls-22" points="267.04 227.93 264.66 224.12 260.22 223.95 263.05 220.48 261.84 216.15 265.97 217.81 269.66 215.3 269.38 219.79 272.87 222.58 268.57 223.7 267.04 227.93"/>
      <polygon class="cls-22" points="118.24 258.8 115.35 254.18 109.96 253.97 113.4 249.76 111.93 244.49 116.94 246.51 121.42 243.46 121.08 248.92 125.33 252.31 120.1 253.66 118.24 258.8"/>
      <polygon class="cls-22" points="517.03 249.04 513.68 243.69 507.44 243.45 511.42 238.56 509.72 232.47 515.53 234.8 520.72 231.27 520.33 237.6 525.24 241.52 519.19 243.09 517.03 249.04"/>
      <polygon class="cls-22" points="611.86 149.14 610.15 146.4 606.96 146.28 609 143.79 608.13 140.68 611.09 141.87 613.75 140.06 613.54 143.3 616.05 145.3 612.96 146.1 611.86 149.14"/>
      <polygon class="cls-22" points="241.77 136.32 240.31 133.99 237.59 133.88 239.33 131.76 238.58 129.1 241.11 130.12 243.37 128.58 243.2 131.34 245.34 133.04 242.71 133.73 241.77 136.32"/>
    </g>
    <g>
      <g>
        <path class="cls-2" d="M53.13,176.5c-.73.48-1.46,1.36-.55,1.91,1.21.74,1.2,1.75.39,1.47-.84-.28-1.52-.51-2.51,0-1.06.56-1.52-.43-.8-.98,1.19-.91,1.44-1.61.48-2.34,1.27.05,2.99-.07,2.99-.07Z"/>
        <path class="cls-2" d="M53.28,176.71c6.06-2.02,13.38-10.17,12.53-21.35-.89-11.73-9.93-14.34-14.72-14.24-4.49.1-14.51,3.62-13.84,16.26.63,11.72,8.47,17.83,12.78,19.48,1.57.38,2.48.11,3.26-.15Z"/>
        <path class="cls-13" d="M62.77,151.09c.25,2.04-.78,3.85-2.31,4.05-1.52.19-2.96-1.31-3.21-3.35-.25-2.04.78-3.85,2.31-4.05,1.53-.19,2.96,1.31,3.21,3.35Z"/>
      </g>
      <path class="cls-24" d="M51.58,178c-.31,0-.67-.04-1.07-.21-.12-.05-.18-.2-.13-.33.06-.13.2-.18.32-.13.84.36,1.52.04,1.55.03.12-.06.27,0,.33.12.06.12,0,.27-.11.33-.02.01-.37.18-.89.19Z"/>
    </g>
    <g>
      <g>
        <path class="cls-17" d="M585.26,177.34c-.65.42-1.3,1.22-.49,1.7,1.08.66,1.07,1.56.34,1.31-.75-.25-1.36-.46-2.24,0-.95.49-1.35-.38-.71-.87,1.06-.81,1.28-1.44.43-2.09,1.13.05,2.67-.06,2.67-.06Z"/>
        <path class="cls-17" d="M585.4,177.53c5.4-1.8,11.92-9.06,11.16-19.03-.79-10.45-8.84-12.78-13.12-12.69-4,.09-12.93,3.22-12.33,14.49.56,10.45,7.55,15.89,11.39,17.36,1.4.34,2.21.1,2.91-.13Z"/>
        <path class="cls-7" d="M593.85,154.7c.22,1.82-.7,3.43-2.06,3.61-1.36.17-2.64-1.17-2.86-2.99-.22-1.82.7-3.43,2.06-3.61,1.36-.17,2.64,1.17,2.86,2.99Z"/>
      </g>
      <path class="cls-15" d="M583.88,178.68c-.27,0-.6-.04-.95-.19-.11-.05-.16-.18-.12-.29.05-.11.18-.16.29-.12.75.32,1.35.04,1.38.02.11-.05.24,0,.29.1.05.11,0,.24-.1.3-.02,0-.33.16-.8.17Z"/>
    </g>
    <g>
      <g>
        <path class="cls-3" d="M151.94,73.13c-21.16,7.14-32.11,32.09-24.47,55.74l3.83-1.29c-6.89-21.36,2.99-43.75,22.04-50.18,19.05-6.43,40.18,5.5,47.28,26.79l3.83-1.29c-7.85-23.58-31.35-36.91-52.51-29.77Z"/>
        <path class="cls-27" d="M196.79,105.48l3.83-1.29c-7.1-21.29-28.23-33.22-47.28-26.79-19.05,6.43-28.93,28.82-22.04,50.18l3.83-1.29h0s0,0,0,0c-6.09-18.93,2.68-38.91,19.62-44.62,16.94-5.72,35.76,4.96,42.05,23.81h0s0,0,0,0Z"/>
        <path class="cls-23" d="M154.74,81.67c-16.94,5.72-25.71,25.69-19.62,44.62l3.83-1.29c-5.34-16.64,2.34-34.04,17.19-39.06,14.85-5.01,31.28,4.26,36.83,20.83l3.82-1.29c-6.3-18.86-25.11-29.53-42.05-23.81Z"/>
        <path class="cls-4" d="M156.14,85.94c-14.85,5.01-22.53,22.42-17.19,39.06l3.83-1.29c-4.54-14.2,2.05-29.2,14.77-33.49,12.72-4.29,26.85,3.72,31.6,17.85l3.83-1.29c-5.55-16.57-21.97-25.84-36.83-20.83Z"/>
        <path class="cls-16" d="M157.54,90.21c-12.72,4.29-19.31,19.29-14.77,33.49l3.83-1.29c-3.79-11.92,1.73-24.35,12.34-27.93,10.61-3.58,22.37,3.02,26.37,14.87l3.83-1.29c-4.75-14.13-18.88-22.14-31.6-17.85Z"/>
        <path class="cls-5" d="M158.94,94.48c-10.61,3.58-16.13,16.01-12.34,27.93l3.83-1.29c-3.04-9.63,1.42-19.5,9.92-22.37,8.5-2.87,17.9,2.33,21.15,11.89l3.83-1.29c-4-11.85-15.76-18.45-26.37-14.87Z"/>
      </g>
      <path class="cls-11" d="M205.8,98.13c.88-2.63-4.43-7.3-8.01-2.89-4.69-3.91-11.17.08-11.34,4.07-4.49-1.11-8.56,5.23-5.84,8.62-4.7,2.52-2.51,12.39,6.14,8.63,4.1,4.73,11.07,2.25,14.02-2.56,5.02,1.57,9.42-3.87,7.63-6.5,5.11-2.53,2.67-10.08-2.61-9.38Z"/>
      <path class="cls-11" d="M149.3,116.6c.66-2.69-5.01-6.9-8.22-2.2-4.99-3.51-11.12,1.02-10.97,5-4.57-.73-8.11,5.93-5.12,9.08-4.48,2.91-1.49,12.56,6.82,8.09,4.46,4.38,11.21,1.32,13.77-3.72,5.13,1.15,9.08-4.64,7.08-7.12,4.88-2.95,1.84-10.26-3.36-9.13Z"/>
    </g>
    <g>
      <path class="cls-11" d="M242.18,276.33c-.94-.11-1.79-.87-1.87-1.88-.06-.79-.59-4.26-.59-4.26,0,0-.45,3.48-.59,4.26-.21,1.16-.89,1.74-1.87,1.88-.78.11-4.23.59-4.23.59,0,0,3.45.49,4.23.59,1.24.17,1.75.97,1.87,1.88.1.78.59,4.26.59,4.26,0,0,.51-3.47.59-4.26.11-1.05.87-1.77,1.87-1.88.78-.09,4.23-.59,4.23-.59,0,0-3.45-.5-4.23-.59Z"/>
      <path class="cls-11" d="M324.13,339.97c-1.5-.18-2.86-1.38-2.99-3.01-.1-1.26-.94-6.81-.94-6.81,0,0-.72,5.57-.94,6.81-.33,1.85-1.42,2.79-2.99,3.01-1.24.17-6.77.95-6.77.95,0,0,5.52.78,6.77.94,1.99.27,2.79,1.54,2.99,3.01.17,1.25.94,6.81.94,6.81,0,0,.81-5.55.94-6.81.17-1.69,1.4-2.83,2.99-3.01,1.25-.14,6.77-.95,6.77-.94,0,0-5.52-.8-6.77-.95Z"/>
      <path class="cls-11" d="M231.45,286.91c-1.9-.22-3.63-1.76-3.79-3.82-.13-1.6-1.19-8.64-1.19-8.64,0,0-.91,7.07-1.19,8.64-.42,2.35-1.8,3.54-3.79,3.82-1.58.21-8.6,1.2-8.6,1.2,0,0,7.01.99,8.6,1.2,2.52.34,3.54,1.96,3.79,3.82.21,1.59,1.19,8.64,1.19,8.64,0,0,1.04-7.05,1.2-8.64.22-2.14,1.77-3.59,3.79-3.82,1.59-.17,8.6-1.2,8.6-1.19,0,0-7.01-1.02-8.6-1.2Z"/>
      <path class="cls-11" d="M390.8,266.23c-1.41-.17-2.68-1.3-2.8-2.82-.1-1.18-.88-6.39-.88-6.39,0,0-.67,5.22-.88,6.39-.31,1.74-1.33,2.62-2.8,2.82-1.17.16-6.35.89-6.35.89,0,0,5.18.73,6.35.89,1.86.25,2.62,1.45,2.8,2.82.16,1.17.88,6.39.88,6.39,0,0,.77-5.21.88-6.39.16-1.58,1.31-2.65,2.8-2.83,1.17-.13,6.35-.89,6.35-.88,0,0-5.18-.75-6.35-.89Z"/>
      <path class="cls-11" d="M415.65,248.3c-.84-.1-1.61-.78-1.68-1.69-.06-.71-.53-3.83-.53-3.83,0,0-.4,3.13-.53,3.83-.19,1.04-.8,1.57-1.68,1.69-.7.09-3.81.53-3.81.53,0,0,3.11.44,3.81.53,1.12.15,1.57.87,1.68,1.69.09.7.53,3.83.53,3.83,0,0,.46-3.12.53-3.83.1-.95.79-1.59,1.68-1.69.7-.08,3.81-.53,3.81-.53,0,0-3.11-.45-3.81-.53Z"/>
    </g>
    <g>
      <path class="cls-11" d="M222.39,344.45c0,.7.65,1.26,1.45,1.26s1.45-.56,1.45-1.26-.65-1.26-1.45-1.26-1.45.56-1.45,1.26Z"/>
      <path class="cls-11" d="M355.57,220.68c0,.72.67,1.3,1.49,1.3s1.49-.58,1.49-1.3-.67-1.3-1.49-1.3-1.49.58-1.49,1.3Z"/>
      <path class="cls-11" d="M388.12,288.8c0,.72.67,1.3,1.49,1.3s1.49-.58,1.49-1.3-.67-1.3-1.49-1.3-1.49.58-1.49,1.3Z"/>
      <path class="cls-11" d="M335.26,262.44c0,.72.67,1.3,1.49,1.3s1.49-.58,1.49-1.3-.67-1.3-1.49-1.3-1.49.58-1.49,1.3Z"/>
      <path class="cls-11" d="M216.61,271.14c0,.72.67,1.3,1.49,1.3s1.49-.58,1.49-1.3-.67-1.3-1.49-1.3-1.49.58-1.49,1.3Z"/>
      <path class="cls-11" d="M152.16,335.57c0,.72.67,1.3,1.49,1.3s1.49-.58,1.49-1.3-.67-1.3-1.49-1.3-1.49.58-1.49,1.3Z"/>
      <path class="cls-11" d="M188.79,319.56c0,.72.67,1.3,1.49,1.3s1.49-.58,1.49-1.3-.67-1.3-1.49-1.3-1.49.58-1.49,1.3Z"/>
      <path class="cls-11" d="M298.89,258.55c0,.48.45.87.99.87s1-.39,1-.87-.45-.87-1-.87-.99.39-.99.87Z"/>
      <path class="cls-11" d="M266.33,253.82c0,.48.45.87,1,.87s.99-.39.99-.87-.44-.87-.99-.87-1,.39-1,.87Z"/>
      <path class="cls-11" d="M354.23,251.29c0,.48.45.87.99.87s1-.39,1-.87-.44-.87-1-.87-.99.39-.99.87Z"/>
      <path class="cls-11" d="M240.81,354.87c0,.28.26.51.58.51s.58-.23.58-.51-.26-.51-.58-.51-.58.23-.58.51Z"/>
      <path class="cls-11" d="M232.98,328.53c0,.28.26.51.58.51s.58-.23.58-.51-.26-.51-.58-.51-.58.23-.58.51Z"/>
      <path class="cls-11" d="M189.31,339.34c0,.28.26.51.58.51s.59-.23.59-.51-.26-.51-.59-.51-.58.22-.58.51Z"/>
      <path class="cls-11" d="M226.91,354.69c0,.28.26.51.58.51s.59-.23.59-.51-.26-.51-.59-.51-.58.23-.58.51Z"/>
      <path class="cls-11" d="M303.27,349.57c0,.28.26.51.58.51s.58-.23.58-.51-.26-.51-.58-.51-.58.23-.58.51Z"/>
      <path class="cls-11" d="M435.04,333.14c0,.28.26.51.58.51s.58-.23.58-.51-.26-.51-.58-.51-.58.23-.58.51Z"/>
      <path class="cls-11" d="M282.91,269.72c0,.28.26.51.58.51s.59-.23.59-.51-.26-.51-.59-.51-.58.23-.58.51Z"/>
      <path class="cls-11" d="M479.66,248.71c0,.48.44.87.99.87s1-.39,1-.87-.44-.87-1-.87-.99.39-.99.87Z"/>
      <path class="cls-11" d="M403.1,307.5c0,.48.45.87,1,.87s.99-.39.99-.87-.44-.87-.99-.87-1,.39-1,.87Z"/>
      <path class="cls-11" d="M256.64,336.09c0,.48.45.87.99.87s1-.39,1-.87-.45-.87-1-.87-.99.39-.99.87Z"/>
      <path class="cls-11" d="M459.1,271.98c0,.48.45.87,1,.87s1-.39,1-.87-.45-.87-1-.87-1,.39-1,.87Z"/>
      <path class="cls-11" d="M109.96,355.9c0,.28.26.51.58.51s.59-.23.59-.51-.26-.51-.59-.51-.58.23-.58.51Z"/>
      <path class="cls-11" d="M93.13,345.08c0,.48.44.87,1,.87s.99-.39.99-.87-.44-.87-.99-.87-1,.39-1,.87Z"/>
      <path class="cls-11" d="M135.78,323.39c0,.48.44.87.99.87s1-.39,1-.87-.45-.87-1-.87-.99.39-.99.87Z"/>
      <path class="cls-11" d="M349.43,279.15c0,1.24,1.15,2.24,2.57,2.24s2.57-1,2.57-2.24-1.15-2.24-2.57-2.24-2.57,1-2.57,2.24Z"/>
      <path class="cls-11" d="M171.49,353.66c0,.54.5.98,1.13.98s1.13-.44,1.13-.98-.5-.98-1.13-.98-1.13.44-1.13.98Z"/>
      <path class="cls-11" d="M370.19,352.83c0,1.24,1.15,2.24,2.57,2.24s2.57-1,2.57-2.24-1.15-2.24-2.57-2.24-2.57,1-2.57,2.24Z"/>
    </g>
  </g>
  <g>
    <path d="M255.55,166.44v36.65c0,6.5-1.98,11.51-5.93,15.03-3.85,3.41-9.05,5.12-15.6,5.12h-9.02c-6.45,0-11.59-1.65-15.44-4.96-4.12-3.52-6.18-8.59-6.18-15.2v-16.98l3.49-2.84h3.41v19.66c0,5.42,1.42,9.2,4.27,11.34,2.84,2.14,7.81,3.21,14.91,3.21s11.54-.92,14.3-2.76c3.25-2.22,4.88-6.15,4.88-11.78v-36.48h6.91ZM228.73,165.47c1.08,0,2.02.39,2.8,1.18.78.79,1.18,1.72,1.18,2.8,0,1.14-.39,2.1-1.18,2.88-.79.79-1.72,1.18-2.8,1.18s-2.02-.39-2.8-1.18c-.79-.78-1.18-1.75-1.18-2.88s.39-2.02,1.18-2.8c.78-.78,1.72-1.18,2.8-1.18Z"/>
    <path d="M273.67,145.64v57.37l-3.49,2.84h-3.41v-60.21h6.91Z"/>
    <path d="M302.11,203.82c-6.17,0-10.92-2.06-14.22-6.18-2.76-3.41-4.14-7.8-4.14-13.16,0-6.12,1.84-10.89,5.53-14.3,3.3-3.14,7.66-4.71,13.08-4.71,4.23,0,7.75,1.06,10.56,3.17,3.41,2.65,5.12,6.53,5.12,11.62v17.8h2.6v5.77h-2.6c-.22,5.69-1.92,10.16-5.12,13.41-2.44,2.49-5.61,4.2-9.51,5.12-2.22.54-4.55.81-6.99.81-1.3,0-2.55-.03-3.74-.08l-2.68-3.33v-2.6c1.63.22,3.33.33,5.12.33,10.35,0,15.65-4.55,15.93-13.65h-8.94ZM311.05,180.26c0-2.76-.81-4.96-2.44-6.58-1.57-1.57-3.66-2.36-6.26-2.36-3.63,0-6.49,1.22-8.57,3.66-2.09,2.44-3.13,5.82-3.13,10.16,0,3.85,1.06,6.96,3.17,9.34,2.11,2.38,4.85,3.58,8.21,3.58h9.02v-17.8Z"/>
    <path d="M341.52,145.64v50.46c0,2.11-.7,3.9-2.11,5.36-1.46,1.57-3.22,2.36-5.28,2.36h-14.14v-5.77h11.54c1.03,0,1.81-.35,2.36-1.06.49-.59.73-1.27.73-2.03v-49.32h6.91Z"/>
    <path d="M395.64,145.64v50.46c0,1.84-.57,3.47-1.71,4.88-1.52,1.9-3.41,2.84-5.69,2.84h-35.51l-2.84-3.49v-2.28h21.78l-13.98-42.42h6.91l14.06,42.42h6.99c.97,0,1.76-.35,2.36-1.06.43-.59.65-1.27.65-2.03v-49.32h6.99ZM355.74,147.19c-1.14-1.46-1.71-3.25-1.71-5.36s.62-3.81,1.87-5.08c1.25-1.27,2.9-1.91,4.96-1.91,1.3,0,2.6.22,3.9.65v3.33c-.97-.27-1.92-.41-2.84-.41-2.82,0-4.23,1.44-4.23,4.31,0,1.03.35,1.98,1.06,2.84.87,1.08,2.03,1.62,3.49,1.62h5.2v1.38l-1.54,1.95h-13.73v-3.33h3.58Z"/>
    <path d="M413.76,145.64v57.37l-3.49,2.84h-3.41v-60.21h6.91Z"/>
  </g>
</svg>